<svg width="72" height="71" viewBox="0 0 72 71" fill="none" xmlns="http://www.w3.org/2000/svg">
<path d="M60.0469 0H11.9531C5.3516 0 0 5.4037 0 12.0695V58.814C0 65.4798 5.3516 70.8835 11.9531 70.8835H60.0469C66.6484 70.8835 72 65.4798 72 58.814V12.0695C72 5.4037 66.6484 0 60.0469 0Z" fill="#00005B"/>
<path d="M28.9244 42.4087H17.767L15.4969 49.5428C15.4367 49.7958 15.2163 49.9742 14.9624 49.9821L9.26621 49.9817C8.94395 49.9817 8.83125 49.8029 8.92811 49.4453L18.5882 21.4697L18.6847 21.1758C18.6955 21.1426 18.7062 21.1091 18.7169 21.0751L18.7813 20.8652C18.8135 20.7565 18.8457 20.6416 18.8779 20.5169C19.0044 19.8662 19.0691 19.2048 19.0711 18.5417C19.0579 18.4477 19.0892 18.3529 19.1557 18.2857C19.2222 18.2186 19.3161 18.1869 19.4092 18.2003H27.089C27.3138 18.2003 27.4426 18.2816 27.4754 18.4442L38.4395 49.494C38.536 49.8194 38.4394 49.982 38.1497 49.9817H31.8707C31.6476 50.0068 31.4408 49.8606 31.3877 49.6404L28.9244 42.4087ZM19.5059 36.3934H27.1373L27.0287 36.0308L26.8539 35.4565L26.5983 34.6342L26.1076 33.0816L25.6399 31.5895L24.7705 28.8096C24.5222 28.0154 24.2915 27.245 24.0785 26.4985L23.8316 25.6193L23.565 24.6557L23.3215 23.7619H23.2732C23.0316 24.9327 22.7373 26.0918 22.3911 27.2354L22.065 28.2925L21.2803 30.8485L20.8824 32.1504C20.8105 32.3855 20.7389 32.618 20.6674 32.8478L20.4536 33.529L20.2409 34.1939L20.0294 34.8426L19.8191 35.4751C19.7143 35.7873 19.6099 36.0934 19.5059 36.3934ZM56.2142 39.6319H46.6991C46.8156 40.5826 47.1283 41.4979 47.6168 42.319C48.157 43.132 48.9209 43.7678 49.8144 44.1479C51.0254 44.677 52.3351 44.9362 53.6543 44.9078C54.7009 44.8875 55.7436 44.772 56.7696 44.5624C57.6873 44.4374 58.5867 44.2006 59.4481 43.8574C59.6088 43.7279 59.6897 43.8087 59.6897 44.1013V48.7345C59.6976 48.8607 59.6726 48.9868 59.6172 49.1003C59.5619 49.1889 59.4876 49.2639 59.3998 49.3197C58.4443 49.747 57.4387 50.0495 56.4074 50.2198C55.0063 50.4855 53.5823 50.6081 52.157 50.5856C49.9417 50.5856 48.0744 50.2499 46.5552 49.5787L46.4092 49.5126C44.9486 48.8629 43.6586 47.8776 42.6419 46.6352C41.6923 45.4645 40.9859 44.1127 40.5649 42.6604C40.1481 41.227 39.9367 39.7406 39.937 38.2467C39.9326 36.6154 40.1854 34.9939 40.6858 33.4428C41.1677 31.9298 41.9298 30.5231 42.9317 29.2973C43.9199 28.0859 45.1556 27.1044 46.5543 26.4199C47.9708 25.7211 49.6454 25.4704 51.5774 25.4704C53.1796 25.4295 54.771 25.7459 56.2383 26.397C57.4721 26.9283 58.5583 27.7567 59.402 28.8096C60.1933 29.8407 60.7982 31.0046 61.1891 32.2479C61.5696 33.4461 61.7651 34.6963 61.7687 35.9545C61.7687 36.67 61.7445 37.3203 61.6962 37.9053L61.6533 38.4063L61.6081 38.8818L61.5816 39.1226C61.5796 39.1402 61.5775 39.1571 61.5755 39.1733C61.5495 39.3959 61.3627 39.5636 61.1407 39.5635L61.0084 39.5664L60.8432 39.5752L60.7148 39.5843L60.4143 39.6103L60.1506 39.6366C60.0788 39.6441 60.0042 39.6513 59.927 39.658L59.6875 39.677L59.432 39.6938L59.1605 39.7082L58.873 39.7203C58.8238 39.7222 58.7739 39.7239 58.7233 39.7255L58.4119 39.7342C58.1039 39.7416 57.7883 39.7223 57.4647 39.6984L56.9734 39.6622C56.7248 39.6452 56.4718 39.6319 56.2142 39.6319ZM46.6991 35.1891L53.2765 35.1888L53.8367 35.1854L54.2177 35.18L54.4643 35.1743L54.741 35.1647C54.9887 35.1397 55.228 35.0597 55.4415 34.9303V34.6376C55.4317 34.2562 55.3666 33.8783 55.2483 33.516C54.7126 31.8057 53.1111 30.6678 51.336 30.7361C49.6751 30.6347 48.1118 31.5339 47.3511 33.0282C47.0203 33.7085 46.8001 34.4381 46.6991 35.1891Z" fill="#9999FF"/>
</svg>
