<svg width="250" height="250" viewBox="0 0 250 250" fill="none" xmlns="http://www.w3.org/2000/svg">
<path d="M121.55 15.5854L121.184 144.651C121.183 145.127 121.11 145.61 120.96 146.095L121.326 17.0295C121.476 16.5444 121.549 16.0617 121.55 15.5854Z" fill="white"/>
<path d="M120.962 147.568C120.888 147.568 120.815 147.561 120.741 147.551C120.019 147.443 119.488 146.822 119.49 146.093L119.856 17.025C119.856 16.8778 119.878 16.7342 119.921 16.5978C120.025 16.2567 120.079 15.9156 120.08 15.5781C120.084 14.7703 120.741 14.1133 121.551 14.1133H121.556C122.367 14.1169 123.023 14.7775 123.021 15.5889L122.655 144.653C122.653 145.278 122.556 145.906 122.367 146.527C122.175 147.152 121.599 147.568 120.962 147.568Z" fill="black"/>
<path d="M121.326 17.0298L120.96 146.095L101.042 210.077L101.408 81.0114L121.326 17.0298Z" fill="#00FF00"/>
<path d="M101.043 211.548C100.967 211.548 100.894 211.54 100.818 211.53C100.099 211.418 99.569 210.797 99.5708 210.072L99.937 81.0077C99.937 80.8605 99.9604 80.7133 100.003 80.5732L119.922 16.5904C120.141 15.8975 120.842 15.4774 121.549 15.5744C122.269 15.6857 122.798 16.3068 122.796 17.0321L122.43 146.1C122.43 146.247 122.407 146.394 122.364 146.534L102.445 210.514C102.251 211.135 101.677 211.548 101.043 211.548ZM102.877 81.2374L102.54 200.317L119.49 145.87L119.827 26.7869L102.877 81.2374Z" fill="black"/>
<path d="M64.9247 234.424L65.2906 105.358C65.2844 107.554 66.8085 109.653 69.4656 111.187C70.4557 111.759 71.603 112.252 72.887 112.643C78.4026 114.31 85.0924 113.727 89.4683 111.184L89.1024 240.249C84.7265 242.792 78.0367 243.376 72.5211 241.708C71.2371 241.317 70.0898 240.824 69.0997 240.252C66.4426 238.718 64.9185 236.619 64.9247 234.424Z" fill="#00FF00"/>
<path d="M79.1096 244.115C76.7257 244.115 74.3238 243.789 72.096 243.114C70.7317 242.701 69.4769 242.169 68.3657 241.527C65.2367 239.721 63.4469 237.132 63.4541 234.422L63.8203 105.354C63.8221 104.542 64.481 103.885 65.2906 103.885C66.1038 103.889 66.7626 104.549 66.7608 105.361C66.7572 106.987 68.012 108.65 70.2021 109.913C71.1087 110.438 72.1552 110.883 73.3167 111.235C78.4006 112.778 84.741 112.229 88.7281 109.913C89.184 109.648 89.7441 109.648 90.2037 109.91C90.6596 110.175 90.9397 110.66 90.9379 111.188L90.5735 240.252C90.5717 240.776 90.2934 241.257 89.8411 241.52C86.9078 243.225 83.0356 244.115 79.1096 244.115ZM66.3946 234.429C66.391 236.055 67.6458 237.714 69.8341 238.978C70.7514 239.509 71.798 239.951 72.9469 240.299C77.731 241.746 83.6316 241.351 87.6348 239.369L87.9903 113.525C83.4288 115.328 77.4976 115.572 72.4622 114.049C71.0853 113.629 69.8305 113.098 68.7319 112.462C67.9923 112.035 67.3281 111.565 66.7446 111.059L66.3946 234.429Z" fill="black"/>
<path d="M117.363 9.74975C120.546 11.5877 122.178 14.2707 121.326 17.0295L101.408 81.0112L160.913 46.4302C166.419 43.2306 175.344 43.2307 180.886 46.4303C186.428 49.6298 186.475 54.8095 180.969 58.0091L89.4683 111.183C85.0924 113.726 78.4026 114.31 72.887 112.643C71.6031 112.252 70.4557 111.759 69.4656 111.187C66.2317 109.32 64.6761 106.616 65.515 103.919L93.4923 14.0699C94.8883 9.61948 102.231 6.67014 109.918 7.49328C112.845 7.80362 115.399 8.61575 117.363 9.74975Z" fill="white"/>
<path d="M79.4759 115.051C77.0937 115.051 74.69 114.724 72.4622 114.049C71.0853 113.629 69.8305 113.098 68.7319 112.463C64.7969 110.19 63.0682 106.837 64.1112 103.483L92.0886 13.6322C93.7114 8.46579 101.635 5.1304 110.074 6.03157C113.113 6.35469 115.889 7.202 118.099 8.47656C122.034 10.7492 123.766 14.1097 122.732 17.4631L103.935 77.8412L160.173 45.1587C166.169 41.6761 175.59 41.6725 181.622 45.1551C184.79 46.9862 186.537 49.503 186.541 52.246C186.544 54.9674 184.828 57.4663 181.708 59.2794L90.2073 112.455C87.2722 114.161 83.4019 115.051 79.4759 115.051ZM107.367 8.82841C101.37 8.82841 95.9338 11.198 94.8962 14.5119L66.9188 104.359C66.3138 106.302 67.5417 108.38 70.2003 109.913C71.1087 110.438 72.1552 110.883 73.3167 111.235C78.3988 112.771 84.7375 112.233 88.7281 109.913L180.229 56.7374C182.404 55.4736 183.602 53.8795 183.6 52.2495C183.596 50.6016 182.372 48.986 180.15 47.7042C175.037 44.7494 166.736 44.7494 161.653 47.7006L102.147 82.2824C101.621 82.584 100.964 82.5373 100.49 82.1604C100.016 81.7834 99.8221 81.1515 100.003 80.5734L119.922 16.5906C120.788 13.783 117.906 11.7617 116.627 11.0257C114.77 9.95218 112.397 9.23771 109.762 8.95407C108.961 8.8679 108.159 8.82841 107.367 8.82841Z" fill="black"/>
<path d="M185.076 52.2827L184.708 181.322C184.708 183.414 183.323 185.478 180.609 187.062L89.1161 240.244L89.455 111.176L180.976 58.0221C183.69 56.4105 185.076 54.3466 185.076 52.2827Z" fill="white"/>
<path d="M185.079 52.2944L184.712 181.338C184.712 183.397 183.314 185.493 180.594 187.074L89.1235 240.236L89.1971 207.441C94.123 208.581 99.2706 209.169 104.528 209.169C144.381 209.169 176.66 175.088 176.66 133.03C176.66 109.868 166.88 89.1325 151.403 75.1988L180.962 58.0297C183.682 56.4121 185.079 54.3532 185.079 52.2944Z" fill="#E9EDF4"/>
<path d="M89.1158 241.717C88.8627 241.717 88.6078 241.649 88.3816 241.52C87.9238 241.254 87.6438 240.769 87.6456 240.242L87.9849 111.174C87.9867 110.65 88.2649 110.169 88.7173 109.906L180.238 56.752C182.395 55.4703 183.595 53.8869 183.605 52.3036V52.2785C183.607 51.4671 184.266 50.8101 185.076 50.8101C185.887 50.8136 186.546 51.4707 186.546 52.2821V52.3144L186.178 181.325C186.178 184.025 184.463 186.516 181.351 188.333L89.8554 241.516C89.6256 241.649 89.3707 241.717 89.1158 241.717ZM90.9235 112.025L90.5932 237.685L179.87 185.791C182.04 184.524 183.237 182.937 183.237 181.321L183.589 57.9655C183.04 58.4359 182.417 58.8775 181.726 59.2868L90.9235 112.025Z" fill="black"/>
<path d="M158.857 163.177L115.335 188.478Z" fill="white"/>
<path d="M158.857 163.177L115.335 188.478Z" fill="white"/>
<path d="M115.336 187.669C114.828 187.669 114.336 187.407 114.063 186.936C113.654 186.233 113.893 185.335 114.594 184.926L158.12 159.628C158.825 159.216 159.721 159.456 160.13 160.16C160.54 160.863 160.301 161.761 159.599 162.17L116.074 187.468C115.84 187.604 115.587 187.669 115.336 187.669Z" fill="black"/>
<path d="M123.988 200.005C123.48 200.005 122.989 199.743 122.716 199.273C122.306 198.569 122.545 197.671 123.247 197.262L149.465 182.021C150.169 181.612 151.068 181.849 151.476 182.553C151.885 183.256 151.646 184.154 150.944 184.563L124.726 199.804C124.493 199.941 124.24 200.005 123.988 200.005Z" fill="black"/>
<path d="M137.029 99.8225C138.527 98.9579 140.027 99.0806 140.591 100.732L144.044 110.843C144.551 112.323 145.991 112.687 147.61 111.753L158.663 105.371C162.281 103.282 163.802 107.734 160.875 111.875L151.955 124.496C150.651 126.345 150.102 128.604 150.609 130.085L154.063 140.195C154.922 142.72 152.845 146.547 150.511 147.895C149.781 148.316 149.027 148.495 148.329 148.317L139.358 146.015C138.703 145.845 137.932 146.016 137.161 146.461C136.391 146.906 135.622 147.624 134.97 148.549L126.05 161.18C125.355 162.162 124.601 162.854 123.872 163.275C121.535 164.624 119.44 163.206 120.289 159.694L123.665 145.641C124.162 143.581 123.602 141.961 122.292 141.622L113.33 139.325C110.397 138.567 111.888 132.377 115.507 130.288L126.568 123.901C128.187 122.967 129.612 120.949 130.109 118.888L133.484 104.835C134.037 102.539 135.532 100.687 137.029 99.8225Z" fill="#00FF00"/>
<path d="M122.191 165.247C121.43 165.247 120.716 165.025 120.118 164.576C118.761 163.56 118.301 161.653 118.86 159.348L122.235 145.296C122.531 144.075 122.314 143.145 121.926 143.049L112.966 140.751C111.532 140.381 110.582 139.221 110.358 137.57C109.99 134.881 111.677 130.802 114.77 129.014L125.832 122.627C127.105 121.894 128.275 120.214 128.679 118.545L132.054 104.492C132.657 101.99 134.282 99.7099 136.292 98.5467C137.569 97.8107 138.867 97.6312 139.953 98.0369C140.617 98.2882 141.511 98.877 141.981 100.259L145.435 110.37C145.51 110.585 145.609 110.721 145.731 110.764C145.916 110.84 146.318 110.8 146.871 110.481L157.929 104.097C159.805 103.013 161.635 103.135 162.819 104.438C164.489 106.266 164.176 109.752 162.076 112.721L153.156 125.345C152 126.982 151.7 128.73 152 129.606L155.454 139.72C156.579 143.02 154.116 147.511 151.246 149.17C150.137 149.809 149.006 150.007 147.963 149.741L138.992 147.439C138.75 147.36 138.335 147.483 137.897 147.737C137.292 148.082 136.682 148.671 136.172 149.396L127.25 162.027C126.468 163.136 125.579 163.984 124.611 164.547C123.8 165.014 122.971 165.247 122.191 165.247ZM137.764 101.096C136.763 101.674 135.418 103.088 134.914 105.182L131.539 119.234C130.941 121.704 129.279 124.034 127.302 125.176L116.242 131.563C114.291 132.687 113.043 135.502 113.271 137.171C113.359 137.814 113.605 137.878 113.699 137.9L122.656 140.198C124.784 140.747 125.785 143.124 125.094 145.985L121.719 160.038C121.429 161.237 121.599 162.012 121.881 162.221C122.068 162.364 122.534 162.35 123.138 162.002C123.725 161.661 124.317 161.083 124.848 160.332L133.768 147.702C134.53 146.617 135.45 145.748 136.429 145.188C137.562 144.535 138.7 144.337 139.725 144.589L148.695 146.89C149.059 146.994 149.53 146.761 149.776 146.621C151.697 145.511 153.24 142.338 152.671 140.668L149.217 130.558C148.555 128.623 149.158 125.912 150.754 123.65L159.674 111.027C161.25 108.793 161.082 106.898 160.647 106.42C160.358 106.104 159.558 106.557 159.4 106.646L148.343 113.026C147.09 113.755 145.798 113.931 144.701 113.522C143.742 113.163 143.015 112.38 142.653 111.321L139.199 101.207C139.152 101.074 139.055 100.841 138.915 100.791C138.734 100.715 138.301 100.787 137.764 101.096Z" fill="black"/>
</svg>
