<svg width="85" height="85" viewBox="0 0 85 85" fill="none" xmlns="http://www.w3.org/2000/svg">
<path d="M42.4999 80.2782C63.364 80.2782 80.2777 63.3645 80.2777 42.5004C80.2777 21.6363 63.364 4.72266 42.4999 4.72266C21.6358 4.72266 4.72217 21.6363 4.72217 42.5004C4.72217 63.3645 21.6358 80.2782 42.4999 80.2782Z" fill="#7D2AE7"/>
<path d="M42.4999 80.2782C63.364 80.2782 80.2777 63.3645 80.2777 42.5004C80.2777 21.6363 63.364 4.72266 42.4999 4.72266C21.6358 4.72266 4.72217 21.6363 4.72217 42.5004C4.72217 63.3645 21.6358 80.2782 42.4999 80.2782Z" fill="url(#paint0_radial_438_1058)"/>
<path d="M42.4999 80.2782C63.364 80.2782 80.2777 63.3645 80.2777 42.5004C80.2777 21.6363 63.364 4.72266 42.4999 4.72266C21.6358 4.72266 4.72217 21.6363 4.72217 42.5004C4.72217 63.3645 21.6358 80.2782 42.4999 80.2782Z" fill="url(#paint1_radial_438_1058)"/>
<path d="M42.4999 80.2782C63.364 80.2782 80.2777 63.3645 80.2777 42.5004C80.2777 21.6363 63.364 4.72266 42.4999 4.72266C21.6358 4.72266 4.72217 21.6363 4.72217 42.5004C4.72217 63.3645 21.6358 80.2782 42.4999 80.2782Z" fill="url(#paint2_radial_438_1058)"/>
<path d="M42.4999 80.2782C63.364 80.2782 80.2777 63.3645 80.2777 42.5004C80.2777 21.6363 63.364 4.72266 42.4999 4.72266C21.6358 4.72266 4.72217 21.6363 4.72217 42.5004C4.72217 63.3645 21.6358 80.2782 42.4999 80.2782Z" fill="url(#paint3_radial_438_1058)"/>
<path d="M58.8093 50.2501C58.4976 50.2501 58.2232 50.5134 57.9377 51.0883C54.7135 57.6263 49.1446 62.2523 42.7003 62.2523C35.2489 62.2523 30.6346 55.5258 30.6346 46.2333C30.6346 30.4926 39.4049 21.3915 47.1081 21.3915C50.7078 21.3915 52.9061 23.6537 52.9061 27.2535C52.9061 31.5259 50.4788 33.788 50.4788 35.2948C50.4788 35.9712 50.8995 36.3807 51.7337 36.3807C55.0857 36.3807 59.0197 32.5292 59.0197 27.0881C59.0197 21.8124 54.4279 17.9346 46.7249 17.9346C33.9939 17.9346 22.6797 29.7373 22.6797 46.0679C22.6797 58.7087 29.8981 67.062 41.0357 67.062C52.8571 67.062 59.6926 55.3004 59.6926 51.4828C59.6926 50.6374 59.2603 50.2501 58.8093 50.2501Z" fill="white"/>
<defs>
<radialGradient id="paint0_radial_438_1058" cx="0" cy="0" r="1" gradientUnits="userSpaceOnUse" gradientTransform="translate(19.3167 71.6892) rotate(-49.416) scale(58.4359)">
<stop stop-color="#6420FF"/>
<stop offset="1" stop-color="#6420FF" stop-opacity="0"/>
</radialGradient>
<radialGradient id="paint1_radial_438_1058" cx="0" cy="0" r="1" gradientUnits="userSpaceOnUse" gradientTransform="translate(24.7244 13.312) rotate(54.703) scale(65.8972)">
<stop stop-color="#00C4CC"/>
<stop offset="1" stop-color="#00C4CC" stop-opacity="0"/>
</radialGradient>
<radialGradient id="paint2_radial_438_1058" cx="0" cy="0" r="1" gradientUnits="userSpaceOnUse" gradientTransform="translate(19.3163 71.6888) rotate(-45.1954) scale(57.7284 26.55)">
<stop stop-color="#6420FF"/>
<stop offset="1" stop-color="#6420FF" stop-opacity="0"/>
</radialGradient>
<radialGradient id="paint3_radial_438_1058" cx="0" cy="0" r="1" gradientUnits="userSpaceOnUse" gradientTransform="translate(35.6204 14.9027) rotate(66.5198) scale(59.4845 99.6502)">
<stop stop-color="#00C4CC" stop-opacity="0.725916"/>
<stop offset="0.0001" stop-color="#00C4CC"/>
<stop offset="1" stop-color="#00C4CC" stop-opacity="0"/>
</radialGradient>
</defs>
</svg>
