<svg width="807" height="811" viewBox="0 0 807 811" fill="none" xmlns="http://www.w3.org/2000/svg">
<path d="M112.471 729.93L47.7139 0H759.286L694.46 729.814L403.065 811L112.471 729.93Z" fill="#264DE4"/>
<path d="M638.961 683.343L694.36 59.6812H403.5V748.946L638.961 683.343Z" fill="#2965F1"/>
<path d="M196.17 330.403L204.154 419.925H403.5V330.403H196.17ZM188.225 238.73H403.5V149.207H180.126L188.225 238.73ZM403.5 562.904L403.109 563.008L303.899 536.087L297.558 464.687H208.132L220.614 605.251L403.09 656.161L403.5 656.045V562.904Z" fill="#EBEBEB"/>
<path d="M403.193 330.403V419.925H512.886L502.547 536.03L403.193 562.978V656.116L585.814 605.252L587.154 590.126L608.086 354.442L610.261 330.403L626.342 149.207H403.193V238.73H528.717L520.61 330.403H403.193Z" fill="white"/>
</svg>
