<svg width="87" height="87" viewBox="0 0 87 87" fill="none" xmlns="http://www.w3.org/2000/svg">
<path d="M43.1809 43.4992C43.1809 36.3811 48.9513 30.6104 56.0697 30.6104C63.1878 30.6104 68.9584 36.3811 68.9584 43.4992C68.9584 50.6176 63.1878 56.3881 56.0697 56.3881C48.9513 56.3881 43.1809 50.6176 43.1809 43.4992Z" fill="#1ABCFE"/>
<path d="M17.3999 69.2775C17.3999 62.1594 23.1704 56.3887 30.2887 56.3887H43.1773V69.2775C43.1773 76.396 37.4069 82.1664 30.2887 82.1664C23.1704 82.1664 17.3999 76.396 17.3999 69.2775Z" fill="#0ACF83"/>
<path d="M43.1809 4.83301V30.6106H56.0697C63.188 30.6106 68.9584 24.8402 68.9584 17.7219C68.9584 10.6035 63.188 4.83301 56.0697 4.83301H43.1809Z" fill="#FF7262"/>
<path d="M17.3999 17.7219C17.3999 24.8402 23.1704 30.6106 30.2887 30.6106H43.1773V4.83301H30.2887C23.1704 4.83301 17.3999 10.6035 17.3999 17.7219Z" fill="#F24E1E"/>
<path d="M17.3999 43.4992C17.3999 50.6176 23.1704 56.3881 30.2887 56.3881H43.1773V30.6104H30.2887C23.1704 30.6104 17.3999 36.3811 17.3999 43.4992Z" fill="#A259FF"/>
</svg>
