<svg width="227" height="227" viewBox="0 0 227 227" fill="none" xmlns="http://www.w3.org/2000/svg">
<path d="M135.731 181.181V191.833C135.731 192.924 135.032 193.972 133.635 194.757L94.9141 217.283C92.0768 218.942 87.4058 218.942 84.5682 217.283L59.249 202.659C57.7646 201.829 57.0663 200.738 57.0663 199.647V188.995L135.731 181.181Z" fill="black"/>
<path d="M133.586 178.162C136.43 179.804 136.445 182.496 133.619 184.138L94.8926 206.643C92.0671 208.286 87.4198 208.286 84.5752 206.643L59.2101 191.999C56.3428 190.343 56.3507 187.665 59.1768 186.023L97.9036 163.517C100.729 161.875 105.354 161.862 108.221 163.517L133.586 178.162Z" fill="#4C5C75"/>
<path d="M89.7426 205.588C88.2059 205.588 86.7401 205.25 85.7215 204.663L60.3548 190.018C59.6153 189.591 59.3467 189.175 59.3467 188.999C59.3467 188.827 59.6084 188.418 60.3257 188L99.0524 165.495C100.067 164.908 101.528 164.57 103.058 164.57C104.589 164.57 106.054 164.908 107.078 165.5L132.442 180.142C133.175 180.565 133.441 180.985 133.441 181.164C133.441 181.335 133.184 181.744 132.471 182.16L93.7441 204.667C92.7366 205.252 91.2778 205.588 89.7426 205.588Z" fill="black"/>
<path d="M109.2 124.253L109.026 185.497C109.02 187.603 107.636 189.704 104.872 191.31C99.2786 194.561 90.1944 194.576 84.5646 191.325C81.7438 189.697 80.3416 187.567 80.348 185.438L80.5212 124.194C80.5154 126.323 81.9177 128.453 84.7378 130.081C90.3682 133.331 99.4523 133.317 105.046 130.066C107.809 128.46 109.194 126.359 109.2 124.253Z" fill="#F3F1FC"/>
<path d="M104.955 118.333C110.584 121.583 110.614 126.83 105.046 130.066C99.4523 133.317 90.3681 133.332 84.7378 130.081C79.1079 126.83 79.1285 121.583 84.7224 118.333C90.2908 115.096 99.3246 115.082 104.955 118.333Z" fill="#E9E7FC"/>
<path d="M19.7188 187.946L19.5 89.1152C19.5 86.6256 20.3715 83.8291 21.8125 81.3262C23.2534 78.8235 25.2372 76.6596 27.4131 75.4043H27.4141L139.474 10.5781L139.479 10.5752C141.512 9.36297 143.27 9.26246 144.538 9.84473L144.785 9.9707L156.495 16.8115L33.5879 199.56L21.8271 192.71L21.8193 192.706L21.5869 192.562C20.4523 191.797 19.7188 190.268 19.7188 187.947V187.946Z" fill="#00FF00" stroke="black"/>
<path d="M151.406 17.2043C155.916 14.6002 159.592 16.6948 159.607 21.8987L159.801 120.709C159.815 125.891 156.164 132.216 151.653 134.82L39.5945 199.681C35.0839 202.285 31.4082 200.19 31.3934 195.008L31.1995 96.1978C31.1847 90.9938 34.8366 84.6684 39.3471 82.0643L151.406 17.2043Z" fill="#1D2943"/>
<path d="M155.771 108.323L35.316 178.034L35.1964 96.1935C35.1565 92.4155 38.0599 87.4049 41.3204 85.4963L153.385 20.6358C154.299 20.1188 154.856 20.0791 155.054 20.0791C155.293 20.1591 155.612 20.6756 155.612 21.9088L155.771 108.323Z" fill="white"/>
<path d="M38.9717 192.984L31.3764 184.582L19.1907 177.491L19.213 187.867C19.1462 190.455 20.1788 192.359 21.6391 193.19L33.7416 200.228C42.3821 196.053 39.0003 195.561 38.9717 192.984Z" fill="#9EA9C9"/>
<path d="M57.4605 109.109L65.8377 109.574C66.1306 109.586 66.2443 109.96 66.0879 110.387C65.9669 110.702 65.7531 110.964 65.5367 111.089C65.4331 111.149 65.3289 111.177 65.234 111.165L56.8352 110.71C56.977 110.452 57.1036 110.188 57.2107 109.921C57.3107 109.653 57.3948 109.38 57.4605 109.109Z" fill="#9EA9C9"/>
<path d="M54.5841 113.12L54.6516 113.081C54.7973 112.997 54.9399 112.901 55.0794 112.797L55.1154 133.638C54.9829 133.692 54.8478 133.756 54.7104 133.834L54.643 133.898L54.4182 134.054C54.2248 134.186 54.037 134.335 53.8563 134.498L53.7965 113.422C53.9775 113.378 54.1656 113.312 54.3594 113.221L54.5841 113.12Z" fill="#9EA9C9"/>
<path d="M57.4251 106.856C57.5404 107.161 57.6095 107.529 57.6107 107.956C57.6117 108.324 57.5563 108.715 57.4605 109.109C57.3949 109.38 57.3108 109.653 57.2108 109.921C57.1036 110.188 56.977 110.452 56.8352 110.71C56.296 111.693 55.5242 112.577 54.6516 113.081L54.5841 113.12L54.3591 113.224C54.1656 113.312 53.9775 113.378 53.7965 113.422C52.5575 113.721 51.655 112.945 51.6506 111.397C51.6451 109.459 52.9903 107.181 54.6322 106.233C55.4536 105.758 56.2046 105.717 56.7509 106.03C56.8927 106.111 57.0213 106.214 57.133 106.342L57.1556 106.355C57.2609 106.495 57.3521 106.663 57.4251 106.856ZM56.1291 109.821C56.2633 109.458 56.3746 109.006 56.3736 108.67C56.3726 108.289 56.2627 107.947 56.0876 107.715L56.0782 107.727C55.7618 107.367 55.2435 107.303 54.6362 107.654C53.6691 108.212 52.8844 109.546 52.8876 110.683C52.8906 111.716 53.5901 112.141 54.4674 111.712L54.49 111.725L54.6978 111.629C55.3273 111.245 55.8459 110.539 56.1291 109.821Z" fill="#9EA9C9"/>
<path d="M55.1153 133.638C56.5657 133.048 57.684 133.83 57.689 135.582C57.6909 136.254 57.5353 136.991 57.2219 137.716C57.1087 137.962 56.9886 138.206 56.8548 138.444C56.3173 139.397 55.5531 140.233 54.7299 140.708C53.0881 141.656 51.7342 140.91 51.7289 139.024C51.7244 137.453 52.6196 135.617 53.8562 134.498C54.0369 134.334 54.2248 134.186 54.4184 134.056L54.6429 133.898L54.7104 133.833C54.8478 133.756 54.9829 133.692 55.1153 133.638ZM56.1851 137.512C56.3642 137.098 56.4531 136.71 56.4519 136.297C56.4488 135.178 55.6838 134.751 54.7592 135.257L54.5571 135.397L54.5346 135.41C53.6577 135.994 52.9629 137.25 52.966 138.309C52.969 139.395 53.7587 139.819 54.7258 139.261C55.333 138.91 55.8943 138.224 56.1627 137.551L56.1851 137.512Z" fill="#9EA9C9"/>
<path d="M75.3632 124.136C75.7005 123.941 75.9713 124.095 75.9725 124.509L76.0017 134.809L76.0035 135.467C76.0047 135.88 75.7357 136.346 75.3983 136.541C75.0385 136.748 74.7677 136.594 74.7665 136.181L74.7648 135.553L74.7355 125.223C74.7343 124.81 75.0033 124.344 75.3632 124.136Z" fill="#9EA9C9"/>
<path d="M74.7666 136.181C74.7678 136.594 75.0385 136.749 75.3984 136.541C74.6113 137.021 73.9831 137.953 73.7606 138.91L73.402 139.557L72.8621 139.843L72.4745 139.809L56.8549 138.444C56.9887 138.206 57.1087 137.962 57.2117 137.714C57.3476 137.425 57.4467 137.133 57.5217 136.843L72.8838 138.186C73.3026 137.172 73.9779 136.222 74.7648 135.553L74.7666 136.181Z" fill="#9EA9C9"/>
<path d="M78.3764 136.31C78.4029 136.466 78.4173 136.635 78.4178 136.817C78.4232 138.703 77.0781 141.007 75.4587 141.942C73.7944 142.903 72.4631 142.144 72.4577 140.258C72.4573 140.115 72.4616 139.965 72.4745 139.809L72.8621 139.843L73.402 139.557L73.7606 138.91L73.6948 139.544C73.6979 140.629 74.465 141.066 75.4546 140.495C76.3767 139.962 77.1839 138.616 77.1808 137.531L77.0668 137.027L77.0441 136.963L77.4277 137.181L77.9673 136.818L78.3764 136.31Z" fill="#9EA9C9"/>
<path d="M96.1832 109.889C96.3996 109.767 96.6103 109.675 96.8132 109.61C98.1713 109.171 99.1796 109.961 99.1843 111.625L98.5546 111.989L97.9248 112.352C97.9216 111.215 97.1544 110.778 96.1873 111.336C95.2427 111.882 94.458 113.215 94.4613 114.352C94.4622 114.688 94.5531 114.972 94.689 115.204C94.983 115.63 95.5689 115.68 96.1986 115.316C97.1657 114.758 97.9279 113.438 97.9248 112.352L98.5546 111.989L99.1843 111.625C99.1897 113.512 97.867 115.802 96.2027 116.763C95.3241 117.271 94.531 117.3 93.9815 116.919C93.8418 116.822 93.7169 116.7 93.6115 116.551C93.3627 116.203 93.2036 115.699 93.2018 115.079C93.197 113.386 94.2226 111.434 95.5762 110.318C95.7724 110.157 95.9754 110.012 96.1832 109.889Z" fill="#9EA9C9"/>
<path d="M93.3533 116.036C93.4207 116.232 93.5077 116.405 93.6115 116.551C93.717 116.7 93.8418 116.822 93.9816 116.919L78.3764 136.309L77.9673 136.817L77.4277 137.181L77.0441 136.962C76.8169 136.291 76.1856 136.086 75.4434 136.514C75.7357 136.345 76.0047 135.88 76.0036 135.466L76.0017 134.809C76.7991 134.532 77.4805 134.702 77.9073 135.228L93.3533 116.036Z" fill="#9EA9C9"/>
<path d="M96.2144 89.0588C96.3993 88.9284 96.5799 88.784 96.7538 88.6255L96.8133 109.61C96.6104 109.675 96.3997 109.767 96.1833 109.889C95.9755 110.012 95.7724 110.157 95.5763 110.318L95.5172 89.4584C95.63 89.4102 95.7638 89.3449 95.8996 89.2664L95.9895 89.2145L96.2144 89.0588Z" fill="#9EA9C9"/>
<path d="M93.063 88.5894C93.1366 88.7884 93.233 88.9629 93.3534 89.1056C93.4625 89.2403 93.5885 89.3508 93.7278 89.4383L85.3857 99.5301C85.284 99.6559 85.175 99.7505 85.0688 99.8119C84.8471 99.9399 84.6374 99.9224 84.5303 99.7392C84.3494 99.5071 84.4606 99.0029 84.775 98.6402L93.063 88.5894Z" fill="#9EA9C9"/>
<path d="M95.8802 82.418C97.5445 81.4571 98.8533 82.2288 98.8812 84.1282C98.8856 85.6827 97.9833 87.5047 96.7538 88.6256C96.5799 88.7841 96.3993 88.9285 96.214 89.0563L95.9895 89.2146L95.8996 89.2666C95.0549 89.7543 94.2816 89.7867 93.7278 89.4385C93.5886 89.3509 93.4625 89.2404 93.3535 89.1057C93.2331 88.9631 93.1367 88.7886 93.063 88.5895C92.957 88.3027 92.8997 87.9635 92.8986 87.5822C92.8974 87.1517 92.9737 86.6965 93.1003 86.2438C93.1789 85.9628 93.2767 85.6825 93.3881 85.41C93.5009 85.1491 93.6315 84.8926 93.7756 84.6441C94.3178 83.7087 95.0629 82.8899 95.8802 82.418ZM96.0753 87.6895C96.9522 87.1057 97.6246 85.8891 97.6217 84.8554C97.6185 83.7183 96.8513 83.2811 95.8842 83.8394C95.2769 84.19 94.7607 84.8505 94.4473 85.575C94.2459 86.0278 94.157 86.4674 94.1581 86.8551C94.1592 87.2427 94.2501 87.5267 94.4084 87.7201C94.7161 88.1213 95.2574 88.1908 95.8452 87.8722L96.0529 87.7284L96.0753 87.6895Z" fill="#9EA9C9"/>
<path d="M59.8272 149.509C60.002 149.596 60.1328 149.815 60.1328 150.033C60.1328 150.469 59.8272 150.95 59.4344 151.212L46.2509 158.764L45.7271 158.851L45.4651 158.24L45.4214 143.179C45.4214 142.743 45.6834 142.262 46.0764 142.044C46.2072 141.957 46.3383 141.957 46.4254 141.957C46.5128 141.957 46.6002 141.957 46.6876 142C46.7747 142.088 46.9495 142.219 46.9495 142.568L46.9929 156.625L59.2162 149.553C59.5216 149.378 59.74 149.465 59.8272 149.509Z" fill="#00FF00"/>
<path d="M45.5963 114.499C45.4215 114.412 45.3341 114.237 45.3341 113.975L45.2906 98.8708L45.5089 98.2159L45.9453 97.7357L59.0415 90.1834C59.3471 90.0089 59.5653 90.0963 59.6527 90.14C59.8272 90.2271 59.9583 90.4454 59.9583 90.7073C59.9583 91.144 59.6527 91.6241 59.3034 91.8423L46.8621 99.0016V113.32C46.8621 113.757 46.6002 114.28 46.2072 114.499C46.0764 114.542 45.9453 114.586 45.8582 114.586C45.7708 114.586 45.6834 114.542 45.5963 114.499Z" fill="#00FF00"/>
<path d="M105.533 123.884L105.315 124.539L104.834 124.975L91.7382 132.527C91.6073 132.615 91.4762 132.658 91.3891 132.658C91.258 132.658 91.1706 132.615 91.1272 132.571C91.0398 132.527 90.8653 132.397 90.8653 132.047C90.8653 131.611 91.1706 131.13 91.5199 130.912L104.005 123.709L103.961 109.391C103.961 108.954 104.223 108.474 104.572 108.256C104.703 108.168 104.834 108.168 104.922 108.168C105.053 108.168 105.14 108.168 105.184 108.212C105.315 108.3 105.489 108.43 105.489 108.78L105.533 123.884Z" fill="#00FF00"/>
<path d="M90.9524 73.2455C90.8653 73.1584 90.6905 73.0273 90.6905 72.6783C90.6905 72.2416 90.9961 71.7614 91.3454 71.5432L104.572 63.9475L105.096 63.9038L105.358 64.4713L105.402 79.5754C105.402 79.9684 105.096 80.4922 104.747 80.7104C104.616 80.7541 104.485 80.7978 104.398 80.7978C104.31 80.7978 104.223 80.7978 104.136 80.7541C103.961 80.623 103.874 80.4485 103.874 80.1866L103.83 66.1302L91.5636 73.2021C91.258 73.3766 91.0835 73.2892 90.9524 73.2455Z" fill="#00FF00"/>
<path d="M93.3881 85.4102C93.2767 85.6827 93.1789 85.9629 93.1003 86.244L77.6443 84.921C77.7814 84.6247 77.8978 84.3222 77.9892 84.0198C78.0724 83.7785 78.1258 83.5383 78.1619 83.3076L93.7756 84.6442C93.6316 84.8928 93.5009 85.1493 93.3881 85.4102Z" fill="#9EA9C9"/>
<path d="M75.8669 87.2954L75.897 97.89C75.898 98.2776 75.6291 98.7694 75.2918 98.9642C74.9319 99.172 74.6611 98.9918 74.66 98.6042L74.6299 88.0111C74.8334 87.9417 75.0437 87.8471 75.2599 87.7223C75.4683 87.602 75.6709 87.4573 75.8669 87.2954Z" fill="#9EA9C9"/>
<path d="M57.1556 106.355C57.0213 106.214 56.8926 106.111 56.7509 106.03L72.301 86.7144C72.3391 86.8941 72.396 87.0597 72.4755 87.2023C72.5582 87.4197 72.6781 87.5934 72.8204 87.7328L57.4251 106.856C57.3521 106.663 57.2609 106.494 57.1556 106.355Z" fill="#9EA9C9"/>
<path d="M75.2406 80.8736C76.8599 79.9387 78.2137 80.6843 78.2191 82.5968C78.2197 82.813 78.2013 83.0544 78.1619 83.3074C78.1258 83.5381 78.0724 83.7782 77.9979 84.0188C77.6148 85.2583 76.8276 86.502 75.867 87.2952C75.671 87.4571 75.4684 87.6018 75.26 87.7221C75.0438 87.8469 74.8335 87.9416 74.63 88.0109C73.6482 88.3456 72.8407 88.0469 72.4651 87.2131C72.3961 87.0598 72.3392 86.8942 72.3011 86.7145C72.257 86.5066 72.2372 86.2807 72.2366 86.0508C72.2536 84.1254 73.5762 81.8345 75.2406 80.8736ZM76.8491 84.0866C76.9385 83.8279 76.9604 83.5823 76.9596 83.3239C76.9564 82.1868 76.1667 81.7625 75.2446 82.2949C74.255 82.8663 73.4928 84.1865 73.4961 85.3236C73.4969 85.6079 73.5426 85.8404 73.6106 85.9823L73.6331 85.9952C73.8826 86.5759 74.5138 86.7292 75.256 86.3007C75.9532 85.8982 76.5814 84.9919 76.8492 84.1125L76.8491 84.0866Z" fill="#9EA9C9"/>
<path d="M85.9651 97.9334V112.819L75.3135 126.09L64.5746 125.13V110.244L75.1827 97.0166L85.9651 97.9334Z" fill="#F45170"/>
<path d="M85.9476 97.9131L85.9447 112.799L75.3268 126.074L75.3296 111.162L85.9476 97.9131Z" fill="#00FF8C"/>
<path d="M75.1994 97L85.9476 97.9131L75.3296 111.162L64.5814 110.249L75.1994 97Z" fill="#7AFF7A"/>
<path d="M64.5814 110.249L75.3296 111.162L75.3268 126.074L64.5785 125.135L64.5814 110.249Z" fill="#00FF00" fill-opacity="0.75"/>
<path d="M145.315 46.7773L145.322 49.1953L120.07 63.7743L120.063 61.3563L145.315 46.7773Z" fill="#9EA9C9"/>
<path d="M145.388 72.6841L145.395 75.1021L120.144 89.681L120.137 87.263L145.388 72.6841Z" fill="#9EA9C9"/>
<path d="M145.443 92.0972L145.45 94.5152L120.199 109.094L120.192 106.676L145.443 92.0972Z" fill="#9EA9C9"/>
<path d="M145.425 85.6377L145.432 88.0557L120.18 102.635L120.174 100.217L145.425 85.6377Z" fill="#9EA9C9"/>
<path d="M145.407 79.1436L145.414 81.5615L120.162 96.1405L120.155 93.7225L145.407 79.1436Z" fill="#9EA9C9"/>
<path d="M145.37 66.1899L145.377 68.6079L120.125 83.1869L120.118 80.7689L145.37 66.1899Z" fill="#9EA9C9"/>
<path d="M145.352 59.7305L145.358 62.1485L120.107 76.7274L120.1 74.3094L145.352 59.7305Z" fill="#9EA9C9"/>
<path d="M145.333 53.2368L145.34 55.6548L120.089 70.2337L120.082 67.8157L145.333 53.2368Z" fill="#9EA9C9"/>
<path d="M145.296 40.2832L145.303 42.7012L120.052 57.2801L120.045 54.8621L145.296 40.2832Z" fill="#9EA9C9"/>
<path d="M145.278 33.8237L145.285 36.2417L120.034 50.8206L120.027 48.4027L145.278 33.8237Z" fill="#9EA9C9"/>
<path d="M209.204 173.76C201.416 169.253 221.56 180.9 155.379 142.635L124.777 160.446V162.847L209.247 176.161V173.76H209.204ZM144.247 158.481L155.422 151.977L175.11 163.327L144.247 158.481Z" fill="#FFD06C"/>
<path d="M155.448 149.585L155.441 151.976L141.023 160.355L141.03 157.964L155.448 149.585Z" fill="black"/>
<path d="M180.811 164.228L180.804 166.62L155.441 151.976L155.448 149.585L180.811 164.228Z" fill="#4C5C75"/>
<path d="M209.261 173.767L209.254 176.158L124.789 162.857L124.796 160.466L209.261 173.767Z" fill="black"/>
<path d="M155.39 142.655L124.788 160.466L209.258 173.78C203.738 170.59 229.233 185.32 155.39 142.655ZM141.027 157.978L155.433 149.596L180.796 164.22L141.027 157.978Z" fill="#00FF00"/>
<path d="M157.398 143.834L155.957 144.663L155.259 144.27L156.699 143.441H156.743L157.398 143.834Z" fill="#4C5C75"/>
<path d="M160.322 145.493L158.838 146.365L158.183 145.973L159.624 145.1L160.322 145.493Z" fill="#4C5C75"/>
<path d="M163.247 147.195L161.763 148.024L161.065 147.632L162.549 146.802L163.247 147.195Z" fill="#4C5C75"/>
<path d="M166.128 148.854L164.644 149.727L163.989 149.291L165.43 148.461L166.128 148.854Z" fill="#4C5C75"/>
<path d="M169.01 150.513L167.569 151.386L166.87 150.993L168.311 150.12L169.01 150.513Z" fill="#4C5C75"/>
<path d="M171.803 152.128L170.363 153.001L169.664 152.608L171.149 151.735L171.803 152.128Z" fill="#4C5C75"/>
<path d="M174.597 153.743L173.157 154.616L172.458 154.224L173.899 153.351L174.597 153.743Z" fill="#4C5C75"/>
<path d="M177.391 155.359L175.951 156.232L175.252 155.795L176.693 154.966L177.391 155.359Z" fill="#4C5C75"/>
<path d="M180.447 157.148L179.006 157.978L178.308 157.585L179.748 156.755L180.447 157.148Z" fill="#4C5C75"/>
<path d="M183.503 158.894L182.062 159.724L181.364 159.331L182.804 158.501L183.503 158.894Z" fill="#4C5C75"/>
<path d="M186.296 160.553L184.856 161.383L184.157 160.99L185.642 160.117L186.296 160.553Z" fill="#4C5C75"/>
<path d="M189.178 162.168L187.737 163.041L187.039 162.605L188.479 161.775L189.178 162.168Z" fill="#4C5C75"/>
<path d="M192.015 163.827L190.574 164.657L189.876 164.264L191.36 163.435L192.015 163.827Z" fill="#4C5C75"/>
<path d="M194.809 165.443L193.368 166.272L192.67 165.879L194.154 165.05L194.809 165.443Z" fill="#4C5C75"/>
<path d="M197.777 167.145L196.337 167.974L195.638 167.581L197.079 166.752L197.777 167.145Z" fill="#4C5C75"/>
<path d="M200.746 168.848L199.305 169.721L198.607 169.284L200.048 168.455L200.746 168.848Z" fill="#4C5C75"/>
<path d="M203.714 170.55L202.274 171.423L201.575 171.03L203.016 170.157L203.714 170.55Z" fill="#4C5C75"/>
<path d="M127.258 207.887C126.375 208.392 127.378 208.45 128.491 209.09C130.695 210.363 132.484 213.461 132.477 216C132.469 217.258 132.026 218.145 132.916 217.633L182.445 188.544C181.548 189.056 181.998 188.169 181.998 186.911C182.006 184.373 180.217 181.274 178.013 180.001C176.9 179.361 175.896 179.303 176.78 178.798L127.258 207.887Z" fill="black"/>
<path d="M170.832 182.258C171.559 181.836 172.556 181.866 173.669 182.506C175.872 183.778 177.662 186.877 177.654 189.415C177.647 190.673 177.213 191.594 176.493 192.008L180.835 189.471C181.548 189.056 181.998 188.169 181.998 186.911C182.006 184.372 180.217 181.274 178.013 180.001C176.9 179.361 175.896 179.303 175.169 179.725L170.832 182.258Z" fill="#F3F1FC"/>
<path d="M121.578 218.171L131.84 217.902C131.84 217.902 132.029 217.895 132.073 217.888C133.273 217.793 134.08 216.775 134.087 215.073C134.094 212.535 132.305 209.436 130.102 208.164C128.276 207.109 126.727 207.633 126.247 209.276L121.578 218.171Z" fill="#FFD06C"/>
<path d="M121.578 218.171L125.934 218.055C125.972 216.389 125.171 215.001 123.614 214.294L121.578 218.171Z" fill="#4C5C75"/>
<path d="M172.603 181.229C173.33 180.807 174.395 180.876 175.507 181.516C177.711 182.789 179.5 185.888 179.493 188.426C179.486 189.684 179.023 190.541 178.303 190.956L182.445 188.544C183.158 188.13 183.609 187.242 183.609 185.984C183.616 183.446 181.827 180.347 179.623 179.075C178.51 178.435 177.507 178.376 176.779 178.798L172.603 181.229Z" fill="#4C5C75"/>
<path d="M158.801 110.311V120.708C158.815 125.891 155.164 132.216 150.653 134.82L38.5945 199.681C34.0839 202.285 30.4082 200.19 30.3934 195.007L30.3722 184.573L158.801 110.311Z" fill="#C9CEE2"/>
<path d="M94.5727 152.106C96.887 150.769 98.7569 151.835 98.7643 154.494C98.7723 157.154 96.9146 160.372 94.5997 161.708C92.2855 163.044 90.416 161.979 90.4085 159.319C90.4006 156.659 92.2583 153.442 94.5727 152.106Z" fill="#1D2943"/>
</svg>
