<svg width="576" height="807" viewBox="0 0 576 807" fill="none" xmlns="http://www.w3.org/2000/svg">
<path d="M574.988 158.194L522.697 740.217L287.649 804.961L53.2473 740.308L1.01196 158.194H574.988Z" fill="#E44D26"/>
<path d="M288 755.473L477.931 703.155L522.617 205.79H288V755.473Z" fill="#F16529"/>
<path d="M186.349 348.58H288V277.185H107.82L109.54 296.339L127.201 493.081H288V421.688H192.916L186.349 348.58Z" fill="#EBEBEB"/>
<path d="M202.543 528.779H130.411L140.478 640.878L287.669 681.477L288 681.385V607.106L287.685 607.189L207.659 585.719L202.543 528.779Z" fill="#EBEBEB"/>
<path d="M54.415 0H90.9312V35.8459H124.335V0H160.853V108.55H124.336V72.2012H90.9328V108.55H54.4166L54.415 0Z" fill="black"/>
<path d="M208.873 35.9969H176.725V0H277.553V35.9969H245.392V108.55H208.874L208.873 35.9969Z" fill="black"/>
<path d="M293.556 0H331.632L355.054 38.1413L378.452 0H416.543V108.55H380.177V54.7468L355.054 93.3425H354.426L329.285 54.7468V108.55H293.556V0Z" fill="black"/>
<path d="M434.717 0H471.244V72.6697H522.596V108.55H434.717V0Z" fill="black"/>
<path d="M287.751 493.081H376.234L367.893 585.674L287.751 607.165V681.442L435.06 640.878L436.14 628.816L453.026 440.859L454.779 421.688H287.751V493.081Z" fill="white"/>
<path d="M287.751 348.405V348.58H461.317L462.759 332.532L466.033 296.339L467.751 277.185H287.751V348.405Z" fill="white"/>
</svg>
