<svg width="72" height="72" viewBox="0 0 72 72" fill="none" xmlns="http://www.w3.org/2000/svg">
<path d="M59.2024 0H12.7398C5.70376 0 0 5.78679 0 12.9251V58.239C0 65.3773 5.70376 71.1641 12.7398 71.1641H59.2024C66.2384 71.1641 71.9422 65.3773 71.9422 58.239V12.9251C71.9422 5.78679 66.2384 0 59.2024 0Z" fill="#330000"/>
<path d="M36.0512 44.8344H25.384L23.2136 51.6747C23.184 51.7994 23.1124 51.9098 23.0113 51.9868C22.9101 52.0638 22.7857 52.1025 22.6594 52.0963H17.2564C16.9484 52.0963 16.8406 51.9246 16.9333 51.581L26.1689 24.595C26.2613 24.3139 26.3538 23.9938 26.4461 23.6346C26.5669 23.0095 26.6288 22.3741 26.6308 21.7371C26.6245 21.6926 26.6286 21.6472 26.6426 21.6044C26.6566 21.5618 26.6803 21.523 26.7116 21.4911C26.743 21.4594 26.7812 21.4354 26.8233 21.4211C26.8654 21.4069 26.9101 21.4028 26.9541 21.4092H34.2964C34.5115 21.4092 34.6347 21.4872 34.6659 21.6435L45.1486 51.6278C45.2409 51.9404 45.1485 52.0966 44.8715 52.0963H38.8681C38.765 52.1079 38.6613 52.081 38.5763 52.0207C38.4913 51.9603 38.4309 51.8707 38.4064 51.7684L36.0512 44.8344ZM27.0463 38.9313H34.3427C34.1579 38.3069 33.9424 37.6042 33.6962 36.823C33.4494 36.0426 33.1877 35.2071 32.9112 34.3165C32.634 33.4263 32.3569 32.5362 32.0798 31.646C31.8028 30.7559 31.5489 29.8969 31.3179 29.0692C31.087 28.2421 30.8793 27.4846 30.6946 26.797H30.6484C30.3884 28.0623 30.0647 29.3133 29.6786 30.545C29.2471 31.9505 28.8084 33.3873 28.3624 34.8553C27.9159 36.3237 27.4771 37.6825 27.0463 38.9313Z" fill="#FF9A00"/>
<path d="M51.3902 26.3753C50.9192 26.3945 50.4496 26.3126 50.0118 26.135C49.5742 25.9574 49.1784 25.688 48.8504 25.3446C48.5232 24.9863 48.2692 24.5658 48.1027 24.1075C47.9363 23.6493 47.8607 23.1621 47.8805 22.6741C47.8637 22.1909 47.9476 21.7096 48.1266 21.2616C48.3057 20.8135 48.5759 20.4088 48.9196 20.0739C49.26 19.7425 49.6617 19.4828 50.1016 19.3098C50.5416 19.137 51.0109 19.0543 51.4825 19.0666C52.5909 19.0666 53.4606 19.4024 54.0917 20.0739C54.4103 20.4228 54.6578 20.8322 54.8203 21.2783C54.9826 21.7246 55.0567 22.1988 55.0383 22.6741C55.0576 23.1641 54.9796 23.6529 54.8091 24.1117C54.6385 24.5704 54.3788 24.9897 54.0454 25.3446C53.697 25.6931 53.2811 25.9646 52.8242 26.142C52.3672 26.3193 51.879 26.3989 51.3902 26.3753ZM48.2038 51.6278V29.2331C48.2038 28.9521 48.3264 28.8115 48.5732 28.8115H54.2533C54.4994 28.8115 54.6225 28.9521 54.6227 29.2331V51.6278C54.6227 51.9404 54.4996 52.0966 54.2533 52.0963H48.6194C48.3424 52.0963 48.2039 51.9402 48.2038 51.6278Z" fill="#FF9A00"/>
</svg>
