<svg width="626" height="607" viewBox="0 0 626 607" fill="none" xmlns="http://www.w3.org/2000/svg">
<path d="M522.074 0H103.926C46.5292 0 0 46.2738 0 103.355V503.645C0 560.726 46.5292 607 103.926 607H522.074C579.471 607 626 560.726 626 503.645V103.355C626 46.2738 579.471 0 522.074 0Z" fill="#49021F"/>
<path d="M227.843 158.888V424.64C227.843 427.424 226.586 428.812 224.072 428.812H173.352C171.114 428.812 169.996 427.422 170 424.64V158.888C170 156.665 171.257 155.552 173.772 155.55H224.49C225.413 155.419 226.345 155.729 227.004 156.385C227.581 156.96 227.891 157.741 227.872 158.543L227.843 158.888ZM380.602 432.957L377.903 432.985C358.61 433.277 339.494 429.286 321.945 421.303C305.597 413.772 291.93 401.479 282.754 386.05C273.482 370.723 268.733 351.62 268.511 328.74L268.502 327.017C268.345 307.87 273.26 289.019 282.754 272.364C292.276 255.847 306.161 242.253 322.888 233.05L324.251 232.314C342.412 222.301 364.347 217.295 390.058 217.295L390.601 217.298L391.805 217.324L393.167 217.377L394.687 217.455L396.364 217.56L398.197 217.692L402.337 218.03C402.709 218.062 403.087 218.095 403.471 218.129V135.942C403.471 133.999 404.31 133.022 405.987 133.022H458.8C459.493 132.923 460.191 133.155 460.686 133.647C461.181 134.14 461.414 134.835 461.316 135.525V382.087C461.316 386.819 461.525 391.965 461.944 397.523L462.34 402.903L462.689 407.909L462.992 412.542C463.098 414.315 462.099 415.972 460.477 416.714C446.852 422.37 432.66 426.565 418.142 429.229C405.753 431.505 393.196 432.752 380.602 432.957ZM403.471 381.252V267.358C401.205 266.748 398.892 266.329 396.556 266.106C393.7 265.821 390.832 265.682 387.962 265.69C377.791 265.589 367.738 267.876 358.621 272.364C349.741 276.758 342.159 283.371 336.616 291.555C330.885 299.899 328.021 310.885 328.022 324.514C327.818 333.608 329.311 342.661 332.423 351.214C334.957 358.106 338.961 364.368 344.161 369.571C349.138 374.357 355.164 377.928 361.765 380.001C368.736 382.248 376.023 383.374 383.351 383.34C387.262 383.34 390.894 383.199 394.249 382.921C396.927 382.72 399.58 382.281 402.177 381.608L403.471 381.252Z" fill="#FF3366"/>
</svg>
