<svg width="807" height="809" viewBox="0 0 807 809" fill="none" xmlns="http://www.w3.org/2000/svg">
<g clip-path="url(#clip0_415_949)">
<path d="M0 0H807V809H0V0Z" fill="#F7DF1E"/>
<path d="M212.19 676.059L273.947 638.592C285.861 659.769 296.699 677.686 322.696 677.686C347.616 677.686 363.327 667.914 363.327 629.904V371.409H439.164V630.979C439.164 709.721 393.122 745.563 325.947 745.563C265.28 745.563 230.064 714.064 212.188 676.053" fill="black"/>
<path d="M480.357 667.913L542.107 632.072C558.362 658.684 579.489 678.232 616.864 678.232C648.288 678.232 668.325 662.482 668.325 640.76C668.325 614.694 647.742 605.461 613.072 590.26L594.117 582.109C539.401 558.762 503.106 529.438 503.106 467.529C503.106 410.508 546.442 367.062 614.158 367.062C662.37 367.062 697.039 383.899 721.955 427.886L662.908 465.898C649.907 442.549 635.826 433.318 614.159 433.318C591.949 433.318 577.863 447.437 577.863 465.898C577.863 488.707 591.949 497.941 624.448 512.061L643.406 520.206C707.87 547.904 744.166 576.139 744.166 639.674C744.166 708.102 690.537 745.569 618.491 745.569C548.07 745.569 502.564 711.902 480.357 667.913Z" fill="black"/>
</g>
<defs>
<clipPath id="clip0_415_949">
<rect width="807" height="809" fill="white"/>
</clipPath>
</defs>
</svg>
