<svg width="47" height="47" viewBox="0 0 47 47" fill="none" xmlns="http://www.w3.org/2000/svg">
<path d="M17.7032 42.1825C19.5832 42.7504 21.4828 43.0834 23.4998 43.0834C28.6937 43.0834 33.6748 41.0201 37.3473 37.3475C41.0199 33.6749 43.0832 28.6938 43.0832 23.5C43.0832 20.9283 42.5766 18.3818 41.5925 16.0058C40.6083 13.6298 39.1658 11.471 37.3473 9.65251C35.5289 7.83403 33.37 6.39153 30.9941 5.40738C28.6181 4.42322 26.0716 3.91669 23.4998 3.91669C20.9281 3.91669 18.3816 4.42322 16.0056 5.40738C13.6297 6.39153 11.4708 7.83403 9.65233 9.65251C5.97974 13.3251 3.9165 18.3062 3.9165 23.5C3.9165 31.8229 9.14525 38.9709 16.5282 41.7909C16.3519 40.2634 16.1757 37.7371 16.5282 35.9942L18.7803 26.32C18.7803 26.32 18.2123 25.1842 18.2123 23.3825C18.2123 20.68 19.8965 18.6629 21.8157 18.6629C23.4998 18.6629 24.2832 19.8967 24.2832 21.4829C24.2832 23.1671 23.1669 25.5759 22.599 27.8867C22.2661 29.8059 23.6173 31.49 25.5757 31.49C29.0615 31.49 31.764 27.7692 31.764 22.5209C31.764 17.8209 28.3957 14.6092 23.5586 14.6092C18.0361 14.6092 14.7853 18.7217 14.7853 23.0496C14.7853 24.7338 15.3336 26.4375 16.2344 27.5538C16.4107 27.6713 16.4107 27.8279 16.3519 28.1217L15.784 30.2563C15.784 30.5892 15.5686 30.7067 15.2357 30.4717C12.729 29.375 11.2798 25.8109 11.2798 22.9321C11.2798 16.7438 15.6665 11.1234 24.1265 11.1234C30.8632 11.1234 36.1115 15.9604 36.1115 22.3838C36.1115 29.1204 31.9403 34.5254 25.9673 34.5254C24.0678 34.5254 22.2073 33.5071 21.5415 32.3125L20.2294 36.9538C19.779 38.6379 18.5453 40.89 17.7032 42.2413V42.1825Z" fill="black"/>
</svg>
