<svg width="206" height="206" viewBox="0 0 206 206" fill="none" xmlns="http://www.w3.org/2000/svg">
<path fill-rule="evenodd" clip-rule="evenodd" d="M56.2974 162.161C52.0316 166.88 47.1864 169.462 42.102 169.462C35.1743 169.462 28.6595 164.613 23.4663 156.151C16.0881 144.13 11.2513 124.74 11.2513 102.871C11.2513 81.0028 16.0881 61.6134 23.4663 49.5921C28.6595 41.1299 35.1743 36.2808 42.102 36.2808C47.1864 36.2808 52.0316 38.8631 56.2974 43.5818C56.7689 44.1034 56.8468 44.8718 56.4888 45.4775C48.7009 58.646 43.7091 79.4682 43.7091 102.871C43.7091 126.275 48.7009 147.096 56.4888 160.265C56.8468 160.871 56.7689 161.639 56.2974 162.161Z" fill="#00FF00"/>
<path fill-rule="evenodd" clip-rule="evenodd" d="M53.7212 43.841C59.5996 33.9021 67.0503 28.1572 74.9994 28.1572C80.6679 28.1572 86.0655 31.0443 90.8205 36.3054C91.2927 36.827 91.3698 37.5954 91.0119 38.2011C82.2364 53.0393 76.6065 76.5001 76.6065 102.871C76.6065 129.242 82.2364 152.703 91.0119 167.542C91.3698 168.148 91.2927 168.915 90.8205 169.438C86.0655 174.698 80.6679 177.585 74.9994 177.585C67.0503 177.585 59.5996 171.841 53.7212 161.901C45.7096 148.354 40.494 126.949 40.494 102.871C40.494 78.7931 45.7096 57.3892 53.7212 43.841Z" fill="white" fill-opacity="0.13"/>
<path fill-rule="evenodd" clip-rule="evenodd" d="M144.37 148.858C140.292 162.456 134.443 173.252 127.605 179.731C122.822 184.263 117.535 186.724 112.01 186.724C103.127 186.724 94.8132 180.285 88.2444 169.178C79.2452 153.96 73.3923 129.917 73.3923 102.871C73.3923 75.8257 79.2452 51.7823 88.2444 36.5645C94.8132 25.4575 103.127 19.019 112.01 19.019C117.535 19.019 122.822 21.4787 127.605 26.0122C134.443 32.4908 140.292 43.2869 144.37 56.8837C144.61 57.6884 144.192 58.5433 143.408 58.8449C130.913 63.6663 119.019 70.9503 109.172 79.8693C105.96 94.7838 105.96 110.961 109.175 125.878C119.021 134.793 130.913 142.077 143.408 146.897C144.192 147.2 144.61 148.055 144.37 148.858Z" fill="#7AFF7A"/>
<path fill-rule="evenodd" clip-rule="evenodd" d="M116.574 73.7578C116.702 73.4315 116.921 73.1699 117.202 73.0064C117.782 72.6692 118.367 72.339 118.956 72.0142C118.154 72.5859 117.36 73.1668 116.574 73.7578ZM139.144 162.748C127.575 153.147 117.044 141.241 108.748 128.293C108.538 127.965 108.416 127.586 108.398 127.205C108.303 125.149 108.253 123.088 108.25 121.026C108.521 122.655 108.83 124.274 109.175 125.878C119.021 134.792 130.913 142.077 143.408 146.897C144.192 147.2 144.61 148.054 144.37 148.858C142.858 153.9 141.103 158.555 139.144 162.748Z" fill="#7AFF7A"/>
<path fill-rule="evenodd" clip-rule="evenodd" d="M149.505 53.6411C164.802 58.4802 179.573 67.008 191.413 77.8365C191.656 78.0595 191.826 78.3527 191.897 78.6759C195.355 94.3435 195.355 111.4 191.897 127.067C191.826 127.39 191.656 127.683 191.413 127.907C179.573 138.735 164.802 147.263 149.505 152.102C149.19 152.202 148.851 152.202 148.535 152.102C133.238 147.263 118.466 138.735 106.627 127.907C106.383 127.683 106.214 127.39 106.142 127.067C102.685 111.4 102.685 94.3435 106.142 78.6759C106.214 78.3527 106.383 78.0595 106.627 77.8365C118.466 67.008 133.238 58.4802 148.535 53.6411C148.851 53.5408 149.19 53.5408 149.505 53.6411Z" fill="black"/>
<path fill-rule="evenodd" clip-rule="evenodd" d="M192.093 79.583C195.354 94.9998 195.289 111.701 191.897 127.066C191.826 127.39 191.656 127.683 191.413 127.907C179.863 138.47 165.523 146.844 150.628 151.74V104.041C165.523 99.1461 179.863 90.771 191.413 80.2079C191.64 80.0004 191.867 79.7921 192.093 79.583Z" fill="black"/>
<path fill-rule="evenodd" clip-rule="evenodd" d="M149.505 53.6411C164.802 58.4802 179.573 67.008 191.413 77.8365C191.656 78.0595 191.826 78.3527 191.897 78.6759C195.355 94.3435 195.355 111.4 191.897 127.067C191.826 127.39 191.656 127.683 191.413 127.907C179.573 138.735 164.802 147.263 149.505 152.102C149.19 152.202 148.851 152.202 148.535 152.102C133.238 147.263 118.466 138.735 106.627 127.907C106.383 127.683 106.214 127.39 106.142 127.067C102.685 111.4 102.685 94.3435 106.142 78.6759C106.214 78.3527 106.383 78.0595 106.627 77.8365C118.466 67.008 133.238 58.4802 148.535 53.6411C148.851 53.5408 149.19 53.5408 149.505 53.6411ZM149.018 56.8615C134.496 61.5355 120.483 69.625 109.172 79.8695C105.96 94.784 105.96 110.962 109.176 125.879C120.486 136.12 134.496 144.209 149.024 148.881C163.546 144.207 177.557 136.118 188.867 125.873C192.081 110.959 192.081 94.781 188.863 79.8633C177.554 69.6235 163.542 61.5355 149.018 56.8615Z" fill="black"/>
<path fill-rule="evenodd" clip-rule="evenodd" d="M106.627 77.8365C118.466 67.008 133.238 58.4802 148.535 53.6411C148.851 53.5408 149.19 53.5408 149.505 53.6411C164.802 58.4802 179.573 67.008 191.413 77.8365C191.745 78.1405 191.935 78.571 191.935 79.0223C191.935 79.4737 191.745 79.9042 191.413 80.2082C179.573 91.0367 164.802 99.5653 149.505 104.404C149.19 104.504 148.851 104.504 148.535 104.404C133.238 99.5653 118.466 91.0367 106.627 80.2082C106.295 79.9042 106.105 79.4737 106.105 79.0223C106.105 78.571 106.295 78.1405 106.627 77.8365ZM110.117 79.0223C121.258 88.8641 134.896 96.6388 149.024 101.183C163.145 96.6381 176.783 88.8641 187.924 79.0223C176.782 69.1806 163.144 61.4059 149.017 56.8615C134.895 61.4074 121.257 69.1814 110.117 79.0223Z" fill="white"/>
<path fill-rule="evenodd" clip-rule="evenodd" d="M147.413 102.871C147.413 101.985 148.133 101.264 149.02 101.264C149.907 101.264 150.628 101.985 150.628 102.871V150.57C150.628 151.457 149.907 152.177 149.02 152.177C148.133 152.177 147.413 151.457 147.413 150.57V102.871Z" fill="white"/>
<path fill-rule="evenodd" clip-rule="evenodd" d="M56.2974 162.161C52.0316 166.88 47.1864 169.462 42.102 169.462C35.1743 169.462 28.6595 164.613 23.4663 156.151C16.0881 144.13 11.2513 124.74 11.2513 102.871C11.2513 81.0028 16.0881 61.6134 23.4663 49.5921C28.6595 41.1299 35.1743 36.2808 42.102 36.2808C47.1864 36.2808 52.0316 38.8631 56.2974 43.5818C56.7689 44.1034 56.8468 44.8718 56.4888 45.4775C48.7009 58.646 43.7091 79.4682 43.7091 102.871C43.7091 126.275 48.7009 147.096 56.4888 160.265C56.8468 160.871 56.7689 161.639 56.2974 162.161ZM53.1156 160.853C45.4473 147.263 40.4941 126.337 40.4941 102.871C40.4941 79.4057 45.4473 58.4794 53.1149 44.8896C49.7525 41.4624 46.043 39.495 42.102 39.495C36.1172 39.495 30.6925 43.9629 26.206 51.2732C19.0639 62.9111 14.4663 81.7011 14.4663 102.871C14.4663 124.041 19.0639 142.832 26.206 154.469C30.6925 161.78 36.1172 166.247 42.102 166.247C46.043 166.247 49.7533 164.281 53.1156 160.853Z" fill="#4A2810"/>
<path fill-rule="evenodd" clip-rule="evenodd" d="M53.7213 43.841C59.5997 33.9021 67.0504 28.1572 74.9995 28.1572C80.668 28.1572 86.0657 31.0443 90.8206 36.3054C91.2928 36.827 91.37 37.5954 91.012 38.2011C82.2365 53.0393 76.6066 76.5001 76.6066 102.871C76.6066 129.242 82.2365 152.703 91.012 167.542C91.37 168.148 91.2928 168.915 90.8206 169.438C86.0657 174.698 80.668 177.585 74.9995 177.585C67.0504 177.585 59.5997 171.841 53.7213 161.901C45.7097 148.354 40.4941 126.949 40.4941 102.871C40.4941 78.7931 45.7097 57.3892 53.7213 43.841ZM56.4888 45.4774C48.701 58.646 43.7091 79.4682 43.7091 102.871C43.7091 126.275 48.701 147.096 56.4888 160.265C61.6635 169.016 68.0009 174.371 74.9995 174.371C79.5246 174.371 83.7858 172.1 87.6396 168.133C78.9837 152.872 73.3924 129.306 73.3924 102.871C73.3924 76.4368 78.9837 52.8711 87.6388 37.6101C83.7858 33.6436 79.5246 31.3722 74.9995 31.3722C68.0009 31.3722 61.6635 36.7267 56.4888 45.4774Z" fill="#4A2810"/>
<path fill-rule="evenodd" clip-rule="evenodd" d="M144.37 148.858C140.292 162.456 134.443 173.252 127.605 179.731C122.822 184.263 117.535 186.724 112.01 186.724C103.127 186.724 94.8132 180.285 88.2444 169.178C79.2452 153.96 73.3923 129.917 73.3923 102.871C73.3923 75.8256 79.2452 51.7823 88.2444 36.5645C94.8132 25.4575 103.127 19.019 112.01 19.019C117.535 19.019 122.822 21.4787 127.605 26.0122C134.443 32.4908 140.292 43.2869 144.37 56.8837C144.61 57.6884 144.192 58.5433 143.408 58.8449C130.913 63.6663 119.019 70.9503 109.172 79.8693C105.96 94.7838 105.96 110.961 109.175 125.878C119.021 134.793 130.913 142.077 143.408 146.897C144.192 147.2 144.61 148.054 144.37 148.858ZM140.857 149.348C128.342 144.323 116.471 136.91 106.627 127.907C106.383 127.683 106.214 127.39 106.142 127.066C102.685 111.4 102.685 94.3433 106.142 78.6757C106.214 78.3524 106.383 78.0593 106.627 77.8363C116.471 68.8332 128.343 61.4188 140.857 56.3953C137.001 44.0993 131.672 34.2931 125.394 28.3454C121.276 24.4429 116.767 22.234 112.01 22.234C104.077 22.234 96.8779 28.2821 91.0119 38.201C82.2364 53.0391 76.6066 76.5 76.6066 102.871C76.6066 129.242 82.2364 152.703 91.0119 167.542C96.8779 177.46 104.077 183.509 112.01 183.509C116.767 183.509 121.276 181.3 125.394 177.398C131.672 171.449 137.001 161.644 140.857 149.348Z" fill="#4A2810"/>
</svg>
