<svg width="237" height="162" viewBox="0 0 237 162" fill="none" xmlns="http://www.w3.org/2000/svg">
<g clip-path="url(#clip0_361_6)">
<path d="M70.5038 106.9L77.7064 130.335C79.3244 135.656 79.9993 139.371 79.7294 141.488C83.6687 130.908 86.4207 119.379 87.9865 106.9H96.6469C92.9232 127.215 88.0116 141.979 81.915 151.188C77.1648 158.285 71.961 161.833 66.2945 161.833C64.7839 161.833 62.9212 161.375 60.7107 160.466V155.569C61.7906 155.728 63.0577 155.813 64.515 155.813C67.1585 155.813 69.289 155.078 70.9098 153.612C72.8509 151.825 73.8222 149.817 73.8222 147.592C73.8222 146.072 73.0645 142.953 71.5561 138.235L61.5206 106.9H70.5038ZM15.3816 92.4957L28.574 132.86H28.6549L41.9283 92.4957H52.7727C55.1473 112.513 56.5495 130.829 56.9803 147.43H47.8373C47.5158 131.911 46.6244 117.318 45.1674 103.648H45.0869L31.1644 147.43H24.2021L10.364 103.648H10.2824C9.25564 116.776 8.60966 131.369 8.34027 147.43H0.00280762C0.541591 127.898 1.88996 109.588 4.04792 92.4957H15.3816Z" fill="#00758F"/>
<path d="M163.167 91.6805C177.357 91.6805 184.453 100.772 184.453 118.946C184.453 128.822 182.319 136.282 178.055 141.322C177.287 142.243 176.438 143.038 175.543 143.776L185.586 148.755L185.576 148.754L182.01 154.929L168.933 147.277C166.765 147.921 164.38 148.242 161.78 148.242C154.813 148.242 149.608 146.206 146.167 142.139C142.39 137.639 140.503 130.555 140.503 120.899C140.503 111.079 142.633 103.647 146.898 98.6008C150.782 93.9851 156.206 91.6805 163.167 91.6805ZM119.712 91.7608C124.784 91.7608 129.396 93.1218 133.549 95.8341L131.439 100.549C127.885 99.0333 124.38 98.2728 120.925 98.2728C118.121 98.2728 115.96 98.9497 114.454 100.311C112.939 101.661 112.002 103.399 112.002 105.516C112.002 108.769 114.314 111.591 118.582 113.976C119.73 114.602 121.226 115.437 122.762 116.302L123.081 116.481C123.134 116.511 123.187 116.541 123.24 116.571L123.559 116.751C123.612 116.781 123.666 116.811 123.719 116.841L124.037 117.021C127.268 118.848 130.308 120.591 130.308 120.591C134.576 123.629 136.703 126.868 136.703 132.203C136.703 136.862 135.001 140.687 131.607 143.679C128.211 146.658 123.648 148.152 117.935 148.152C112.59 148.152 107.411 146.433 102.394 143.023L104.741 138.304C109.059 140.474 112.966 141.557 116.473 141.557C119.764 141.557 122.339 140.821 124.202 139.366C126.061 137.901 127.176 135.858 127.176 133.266C127.176 130.004 124.913 127.216 120.762 124.877C119.685 124.282 118.304 123.505 116.877 122.696L116.559 122.516C115.975 122.185 115.386 121.85 114.81 121.521L114.497 121.343C111.695 119.744 109.272 118.348 109.272 118.348C105.122 115.304 103.042 112.038 103.042 106.658C103.042 102.208 104.593 98.6107 107.692 95.8741C110.798 93.1319 114.805 91.7608 119.712 91.7608ZM201.13 92.4957V140.672H218.367V147.43H192.388V92.4957H201.13ZM227.945 140.694V141.835H226.049V147.424H224.601V141.835H222.632V140.694H227.945ZM231.444 140.694L233.264 145.281L234.935 140.694H236.989V147.424H235.623V142.302L233.721 147.424H232.736L230.831 142.302H230.757V147.424H229.466V140.694H231.444ZM162.274 98.4364C153.912 98.4364 149.728 105.357 149.728 119.19C149.728 127.113 150.837 132.86 153.05 136.441C155.099 139.755 158.309 141.409 162.68 141.409C171.043 141.409 175.226 134.434 175.226 120.491C175.226 112.678 174.118 106.981 171.907 103.399C169.855 100.092 166.646 98.4364 162.274 98.4364Z" fill="#F29111"/>
<path d="M140.356 3.40396C143.13 -3.43163 152.83 1.7447 156.594 4.1329C157.517 4.72995 158.575 5.99212 159.632 6.4587C161.283 6.52394 162.931 6.65299 164.584 6.72248C167.685 7.45284 170.589 8.04989 173.032 9.44537C184.386 16.1505 191.776 22.9832 198.579 34.269C200.031 36.6601 200.758 39.2468 201.945 41.8336C203.593 45.6896 205.445 49.737 207.357 53.3836C208.213 55.112 208.876 57.0344 210.065 58.4941C210.529 59.1616 211.848 59.3582 212.636 59.7571C214.815 60.8883 217.456 61.747 219.505 63.0748C223.333 65.4679 227.034 68.3199 230.398 71.2393C231.652 72.3666 232.506 73.9621 233.701 75.1542V75.7558C232.64 76.0821 231.584 76.4162 230.526 76.6837C228.216 77.2793 226.169 77.1446 223.928 77.7402C222.543 78.1429 220.824 78.6747 219.371 78.8094C219.436 78.8748 219.505 78.9451 219.505 78.9451C220.36 81.3936 224.983 83.3851 227.097 84.8492C229.666 86.7079 232.045 88.9625 233.961 91.5507C234.622 92.2115 235.284 92.8127 235.942 93.4713C236.402 94.1388 236.532 95.0019 236.997 95.5976V95.7985C236.482 95.616 236.111 95.2682 235.759 94.9041L235.55 94.6848C235.34 94.466 235.128 94.252 234.887 94.0752C233.43 93.0769 231.983 91.8831 230.526 90.9552C228.021 89.3614 225.116 88.4362 222.543 86.8364C221.089 85.9073 219.703 84.8492 218.316 83.7868C217.059 82.855 215.676 81.0657 214.886 79.7383C214.421 79.005 214.357 78.1429 213.825 77.6127C213.921 76.7264 214.73 76.4629 215.547 76.2465L215.735 76.1972C216.017 76.1236 216.293 76.0504 216.533 75.9536C219.965 74.4922 224.057 73.9621 229.34 74.095C229.141 72.7644 225.839 71.107 224.786 70.3104C222.67 68.7814 220.43 67.1859 218.186 65.7944C216.997 65.0653 214.948 64.5335 213.631 63.938C211.848 63.2074 207.886 62.4772 206.899 61.0857C205.221 58.892 204.015 56.2754 202.845 53.632L202.527 52.9107C202.42 52.6703 202.314 52.4299 202.208 52.1899C200.824 49.0071 199.106 45.6886 197.72 42.4296C196.995 40.8399 196.662 39.4444 195.868 37.9198C191.051 28.5627 183.921 20.7288 175.277 15.2192C172.436 13.4266 169.268 11.7673 165.772 10.6399C163.79 10.04 161.412 10.3719 159.301 9.91095H157.912C156.726 9.57627 155.735 8.3155 154.81 7.65039C152.767 6.25916 150.72 5.32459 148.276 4.33187C147.42 3.93336 144.974 3.00589 144.121 3.73624C143.592 3.86955 143.324 4.06952 143.194 4.60134C142.668 5.39551 143.13 6.59103 143.458 7.32281C144.449 9.44439 145.834 10.7051 147.091 12.4977C148.209 14.0875 149.599 15.8801 150.391 17.6088C152.102 21.3244 152.899 25.4414 154.484 29.157C155.073 30.5539 156.002 32.1436 156.858 33.4044C157.583 34.4042 158.902 35.1275 159.301 36.3939C160.097 37.7213 158.111 42.102 157.651 43.4933C155.932 48.9366 156.264 56.503 158.245 61.2218C158.28 61.3041 158.315 61.3871 158.35 61.4706L158.456 61.7224C159.179 63.4504 159.953 65.3114 161.875 65.7949C162.008 65.663 161.875 65.7323 162.137 65.663C162.603 62.0106 162.734 58.4935 163.989 55.6361C164.714 53.8495 166.163 52.5864 167.156 51.1278C167.817 51.5251 167.817 52.7233 168.212 53.516C169.071 55.5724 169.993 57.827 171.053 59.8895C173.226 64.1369 175.672 68.2545 178.443 71.97C179.371 73.2967 180.689 74.7576 181.876 75.9531C182.405 76.4157 182.998 76.6832 183.395 77.2788H183.525V77.4793C181.545 76.7469 180.29 74.6927 178.71 73.4934C175.737 71.2388 172.175 67.8529 170.126 64.6039C169.269 62.7391 168.342 60.9515 167.418 59.0957V58.9615C167.023 59.4918 167.156 60.018 166.958 60.8202C166.101 64.1369 166.761 67.9204 163.79 69.1131C160.424 70.5103 157.912 66.8585 156.858 65.1994C153.49 59.6912 152.568 50.3993 154.943 42.8986C155.47 41.2379 155.542 39.2468 156.463 37.9208C156.264 36.7225 155.343 36.3949 154.81 35.6603C153.886 34.4052 153.095 32.943 152.372 31.549C150.982 28.8261 149.994 25.5728 148.939 22.6528C148.475 21.4601 148.342 20.2632 147.879 19.1343C147.091 17.4112 145.637 15.6825 144.516 14.158C142.996 11.9669 138.573 7.72087 140.356 3.40396ZM162.006 16.408C162.183 16.5853 162.395 16.7403 162.616 16.8928L162.882 17.0758C163.236 17.3215 163.578 17.5807 163.789 17.9339C164.122 18.4005 164.184 18.8614 164.583 19.3294C164.583 20.9249 164.122 21.9857 163.191 22.6465C163.191 22.6465 163.128 22.7161 163.063 22.7813C162.535 21.7177 162.073 20.6597 161.541 19.5975C160.886 18.67 159.961 17.934 159.428 16.8746H159.3V16.7413C160.097 16.5442 160.886 16.408 162.006 16.408Z" fill="#00758F"/>
</g>
<defs>
<clipPath id="clip0_361_6">
<rect width="237" height="162" fill="white"/>
</clipPath>
</defs>
</svg>
