<svg width="78" height="78" viewBox="0 0 78 78" fill="none" xmlns="http://www.w3.org/2000/svg">
<g clip-path="url(#clip0_346_42)">
<mask id="mask0_346_42" style="mask-type:luminance" maskUnits="userSpaceOnUse" x="0" y="0" width="78" height="78">
<path d="M39 78C60.5391 78 78 60.5391 78 39C78 17.4609 60.5391 0 39 0C17.4609 0 0 17.4609 0 39C0 60.5391 17.4609 78 39 78Z" fill="white"/>
</mask>
<g mask="url(#mask0_346_42)">
<path d="M39 78C60.5391 78 78 60.5391 78 39C78 17.4609 60.5391 0 39 0C17.4609 0 0 17.4609 0 39C0 60.5391 17.4609 78 39 78Z" fill="black"/>
<path d="M64.7867 68.2587L29.9614 23.4H23.3999V54.587H28.6491V30.0662L60.6661 71.4328C62.1109 70.4661 63.4871 69.4048 64.7867 68.2587Z" fill="url(#paint0_linear_346_42)"/>
<path d="M55.0333 23.4H49.8333V54.6H55.0333V23.4Z" fill="url(#paint1_linear_346_42)"/>
</g>
</g>
<defs>
<linearGradient id="paint0_linear_346_42" x1="46.4244" y1="50.4833" x2="60.2454" y2="67.6135" gradientUnits="userSpaceOnUse">
<stop stop-color="white"/>
<stop offset="1" stop-color="white" stop-opacity="0"/>
</linearGradient>
<linearGradient id="paint1_linear_346_42" x1="52.4333" y1="23.4" x2="52.3462" y2="46.3122" gradientUnits="userSpaceOnUse">
<stop stop-color="white"/>
<stop offset="1" stop-color="white" stop-opacity="0"/>
</linearGradient>
<clipPath id="clip0_346_42">
<rect width="78" height="78" fill="white"/>
</clipPath>
</defs>
</svg>
