<svg width="199" height="199" viewBox="0 0 199 199" fill="none" xmlns="http://www.w3.org/2000/svg">
<path d="M184.977 50.9937L184.728 148.006L99.6555 197.445L99.9043 100.433L184.977 50.9937Z" fill="#00FF00"/>
<path d="M99.9042 100.433L99.6555 197.445L14.0233 148.006L14.2721 50.9937L99.9042 100.433Z" fill="#00FF00"/>
<path d="M184.977 50.9937L99.9043 100.433L64.1776 79.8177L48.4752 70.7383L14.2721 50.9937L99.3757 1.55469L133.859 21.4547L149.53 30.5341L184.977 50.9937Z" fill="#7AFF7A"/>
<path d="M149.53 30.534L64.1776 79.8176L48.4752 70.7382L133.859 21.4546L149.53 30.534Z" fill="black"/>
<path d="M64.1776 103.325V79.8177L48.4752 70.7383V94.2762L64.1776 103.325Z" fill="#484C52"/>
<path d="M90.887 182.614L90.8559 185.225L62.7161 168.963V166.352L90.887 182.614Z" fill="#212121"/>
<path d="M69.3701 143.093L75.8998 157.707L71.8576 155.375L71.8265 169.088L66.7582 166.165L66.7893 152.452L62.7782 150.12L69.3701 143.093Z" fill="#212121"/>
<path d="M84.3884 151.769L90.9181 166.383L86.8759 164.051L86.8448 177.763L81.7765 174.84L81.8076 161.128L77.7965 158.796L84.3884 151.769Z" fill="#212121"/>
<path d="M48.4751 107.957L48.4129 124.81C48.3819 132.397 43.4069 135.755 37.0015 132.957L36.9704 145.705C40.142 148.006 42.8783 151.52 44.7128 155.375L26.1498 144.648C28.0154 142.938 30.7517 142.596 33.9233 143.933L33.9544 131.184C27.549 126.614 22.6362 117.503 22.6362 109.916L22.6984 93.0635L36.3797 100.961L34.8872 106.9L39.4269 114.238L37.1259 119.586L41.3236 114.58L37.0948 107.646L40.142 103.107L48.4751 107.957Z" fill="black"/>
</svg>
