<svg width="72" height="70" viewBox="0 0 72 70" fill="none" xmlns="http://www.w3.org/2000/svg">
<path d="M60.0469 0H11.9531C5.3516 0 0 5.3276 0 11.8995V57.9856C0 64.5576 5.3516 69.8852 11.9531 69.8852H60.0469C66.6484 69.8852 72 64.5576 72 57.9856V11.8995C72 5.3276 66.6484 0 60.0469 0Z" fill="#001E36"/>
<path d="M16.2124 49.008V18.2827C16.2124 18.0588 16.3091 17.9461 16.5023 17.9461L16.808 17.9452L17.3305 17.9395L18.0568 17.9252L20.4897 17.874L23.098 17.8259C24.0156 17.8101 24.9252 17.8018 25.8269 17.8018C28.2736 17.8018 30.3344 18.1064 32.0092 18.7154C33.52 19.2242 34.8978 20.0619 36.0424 21.1677C37.0126 22.1261 37.7623 23.2827 38.2399 24.5576C38.6918 25.7983 38.9207 27.1085 38.9164 28.4283C38.9164 30.9932 38.3206 33.1089 37.1292 34.7753C35.9632 36.402 34.3374 37.6448 32.4606 38.3467L32.2991 38.4056C30.3381 39.134 28.1663 39.3971 25.7843 39.4138L25.4142 39.4146L24.8651 39.4117L24.5878 39.408L24.279 39.4006L24.093 39.3934L23.9799 39.3876L23.7017 39.3774L23.3617 39.3706L22.8497 39.3667C22.8124 39.3666 22.7744 39.3666 22.7358 39.3666V48.9599C22.7528 49.0791 22.7126 49.1993 22.627 49.2845C22.5415 49.3696 22.4207 49.4097 22.301 49.3927H16.5505C16.3249 49.3926 16.2124 49.2649 16.2124 49.008ZM22.7357 23.7161V33.7374C23.1538 33.7697 23.5402 33.7857 23.8949 33.7855H25.4888C26.5882 33.7818 27.6809 33.6189 28.7325 33.3021L28.9423 33.2367C29.8992 32.9537 30.7542 32.4029 31.4056 31.6499C32.011 30.9392 32.3245 29.96 32.3463 28.7123L32.3475 28.5726C32.3729 27.6425 32.1298 26.7246 31.647 25.9279C31.1394 25.1576 30.4058 24.5616 29.5459 24.221C28.4232 23.7865 27.224 23.5821 26.0201 23.62L25.4075 23.6218L25.0211 23.6249L24.6523 23.6297L24.132 23.6398L23.7525 23.6505L23.555 23.6578L23.2915 23.67L23.0671 23.6838L22.9392 23.6938L22.8288 23.7046C22.8118 23.7065 22.7956 23.7083 22.7801 23.7103L22.7357 23.7161ZM57.5912 31.9153C56.7484 31.4841 55.8546 31.1604 54.931 30.9516L54.7174 30.9055C53.7009 30.6733 52.6634 30.5455 51.6212 30.524L51.3605 30.5208C50.7494 30.5043 50.1391 30.5772 49.5492 30.7372C49.1738 30.8205 48.8401 31.0334 48.6074 31.3383C48.45 31.5821 48.3662 31.8658 48.3659 32.1557C48.3748 32.4369 48.4766 32.7073 48.6557 32.925C48.9122 33.2237 49.2204 33.4737 49.5654 33.6633L49.67 33.7184C50.3586 34.0876 51.0682 34.4167 51.7952 34.7041C53.4162 35.2443 54.9651 35.9789 56.4078 36.8919C57.3906 37.5094 58.2039 38.3603 58.7745 39.3682C59.2544 40.3225 59.4947 41.3785 59.4749 42.4456C59.5038 43.8546 59.0994 45.2387 58.3158 46.4124C57.4768 47.6039 56.3116 48.5302 54.9588 49.081C53.5421 49.7005 51.8023 50.0208 49.7396 50.0416L49.5251 50.0427C48.2462 50.0556 46.9694 49.9441 45.7127 49.7101L45.4437 49.658C44.3854 49.4648 43.3552 49.1418 42.3767 48.6964C42.1755 48.593 42.0473 48.3901 42.0386 48.1673L42.0386 42.9263C42.0267 42.8227 42.0732 42.7211 42.1594 42.6619C42.2443 42.6141 42.3501 42.6237 42.425 42.6859C43.5806 43.3643 44.8353 43.8591 46.1441 44.1525C47.2976 44.4403 48.4809 44.5936 49.67 44.6093C50.7967 44.6093 51.6259 44.465 52.1574 44.1765C52.6478 43.9531 52.9601 43.4632 52.9544 42.9263C52.9544 42.5102 52.7129 42.1095 52.2299 41.7243C52.0274 41.563 51.7371 41.3876 51.359 41.198L51.1783 41.1096L50.985 41.0191C50.9518 41.0039 50.918 40.9885 50.8838 40.9731L50.6719 40.8797C50.6355 40.8639 50.5986 40.8481 50.5612 40.8322L50.3306 40.7357C50.2912 40.7195 50.2512 40.7031 50.2107 40.6867L49.9614 40.5873C49.9188 40.5705 49.8757 40.5537 49.832 40.5368L49.564 40.4343L49.2836 40.3298C47.767 39.8043 46.329 39.0765 45.009 38.1661C44.0649 37.5124 43.2874 36.6479 42.7389 35.6417C42.2639 34.6942 42.0238 33.6472 42.0386 32.5884C42.0359 31.3162 42.3869 30.068 43.0528 28.9822C43.8121 27.7864 44.9024 26.8346 46.1924 26.2414C47.6089 25.5367 49.3799 25.1841 51.5054 25.1836C52.7502 25.1736 53.9938 25.2621 55.2245 25.448C56.1157 25.5606 56.9871 25.7952 57.8137 26.1452C57.9467 26.1832 58.054 26.2812 58.1035 26.4097C58.1361 26.5271 58.1524 26.6485 58.1518 26.7703V31.6268C58.1586 31.7418 58.1034 31.8517 58.0069 31.9153C57.876 31.9801 57.7222 31.9801 57.5912 31.9153Z" fill="#31A8FF"/>
</svg>
