<svg width="787" height="807" viewBox="0 0 787 807" fill="none" xmlns="http://www.w3.org/2000/svg">
<path d="M783.912 483.239C779.194 469.03 766.834 459.132 750.848 456.755C743.312 455.637 734.679 456.114 724.466 458.208C706.663 461.861 693.454 463.251 683.815 463.522C720.198 402.431 749.785 332.764 766.818 267.186C794.358 161.15 779.641 112.844 762.443 90.9921C716.929 33.1596 650.524 2.08913 570.409 1.1367C527.675 0.618017 490.155 9.00915 470.586 15.0418C452.363 11.8466 432.768 10.061 412.208 9.73024C373.674 9.11939 339.624 17.4726 310.53 34.6416C294.419 29.227 268.57 21.5913 238.716 16.7171C168.5 5.25365 111.911 14.187 70.518 43.2658C20.3948 78.475 -2.84213 139.647 1.45596 225.086C2.81899 252.213 18.0795 334.745 42.1052 413.02C55.9136 458.008 70.638 495.369 85.8694 524.072C107.469 564.774 130.58 588.743 156.527 597.35C171.072 602.17 197.494 605.542 225.287 582.528C228.81 586.768 233.507 590.984 239.746 594.899C247.667 599.867 257.353 603.926 267.025 606.332C301.888 614.999 334.543 612.831 362.401 600.684C362.572 605.611 362.705 610.319 362.817 614.383C363.003 620.978 363.184 627.442 363.428 633.488C365.078 674.372 367.875 706.16 376.162 728.4C376.617 729.625 377.229 731.488 377.876 733.464C382.009 746.053 388.924 767.126 406.511 783.632C424.726 800.727 446.756 805.971 466.933 805.969C477.052 805.969 486.708 804.65 495.175 802.845C525.363 796.413 559.646 786.61 584.446 751.495C607.892 718.297 619.291 668.297 621.353 589.512C621.62 587.285 621.868 585.158 622.106 583.13C622.266 581.762 622.429 580.363 622.595 578.968L628.119 579.45L629.542 579.546C660.289 580.94 697.883 574.455 720.971 563.791C739.215 555.37 797.677 524.68 783.912 483.239Z" fill="black"/>
<path d="M731.341 491.299C639.923 510.051 633.639 479.272 633.639 479.272C730.161 336.845 770.511 156.055 735.69 111.808C640.696 -8.89009 476.256 48.1924 473.512 49.6743L472.628 49.8316C454.567 46.1032 434.355 43.882 411.637 43.5134C370.272 42.8392 338.895 54.2973 315.086 72.2525C315.086 72.2525 21.7415 -47.9216 35.3845 223.394C38.2869 281.114 118.577 660.132 214.343 545.651C249.346 503.789 283.165 468.394 283.165 468.394C299.963 479.491 320.073 485.151 341.154 483.118L342.792 481.735C342.283 486.933 342.515 492.017 343.448 498.035C318.777 525.446 326.026 530.258 276.708 540.354C226.805 550.581 256.121 568.789 275.262 573.548C298.466 579.318 352.149 587.493 388.422 536.998L386.976 542.759C396.642 550.458 403.43 592.84 402.292 631.259C401.155 669.68 400.395 696.057 408.012 716.66C415.628 737.263 423.219 783.619 488.053 769.804C542.227 758.259 570.3 728.342 574.205 678.438C576.977 642.959 583.248 648.204 583.645 616.485L588.675 601.468C594.476 553.375 589.596 537.86 622.973 545.076L631.084 545.785C655.649 546.896 687.8 541.856 706.67 533.134C747.303 514.382 771.401 483.073 731.337 491.299H731.341Z" fill="#336791"/>
<path d="M332.256 249.207C324.02 248.067 316.558 249.122 312.783 251.963C310.659 253.563 310.003 255.415 309.826 256.691C309.352 260.069 311.733 263.802 313.194 265.729C317.33 271.182 323.375 274.93 329.358 275.756C330.224 275.875 331.086 275.933 331.944 275.933C341.921 275.933 350.99 268.209 351.789 262.507C352.789 255.366 342.364 250.606 332.256 249.207Z" fill="white"/>
<path d="M605.171 249.433C604.386 243.836 594.367 242.24 584.862 243.554C575.372 244.87 566.167 249.13 566.936 254.739C567.554 259.102 575.472 266.55 584.85 266.548C585.64 266.548 586.44 266.496 587.245 266.384C593.504 265.522 598.096 261.569 600.277 259.29C603.601 255.82 605.522 251.949 605.171 249.433Z" fill="white"/>
<path d="M761.762 489.168C758.276 478.686 747.057 475.312 728.417 479.142C673.07 490.5 653.25 482.632 646.74 477.866C689.761 412.692 725.151 333.915 744.242 260.412C753.287 225.595 758.283 193.262 758.69 166.908C759.141 137.977 754.189 116.722 743.97 103.737C702.772 51.3877 642.309 23.3082 569.118 22.5365C518.802 21.9744 476.29 34.7807 468.049 38.3808C450.693 34.0885 431.772 31.4535 411.176 31.1174C373.402 30.5101 340.753 39.5031 313.719 57.8324C301.977 53.4877 271.63 43.1285 234.521 37.1844C170.361 26.9101 119.378 34.694 82.9943 60.3264C39.5808 90.9125 19.5388 145.586 23.4226 222.825C24.7293 248.813 39.6172 328.754 63.1158 405.313C94.0457 506.077 127.665 563.122 163.042 574.854C167.182 576.228 171.958 577.19 177.222 577.19C190.127 577.19 205.947 571.404 222.409 551.725C249.751 519.014 275.28 491.603 284.69 481.643C298.597 489.067 313.872 493.211 329.499 493.627C329.527 494.034 329.568 494.44 329.605 494.845C326.47 498.543 323.898 501.783 321.706 504.55C310.88 518.217 308.627 521.061 273.777 528.198C263.865 530.231 237.533 535.628 237.149 553.981C236.73 574.032 268.27 582.454 271.865 583.347C284.388 586.464 296.452 588.002 307.958 588.002C335.942 588.001 360.566 578.856 380.246 561.161C379.639 632.647 382.638 703.089 391.268 724.552C398.336 742.12 415.607 785.061 470.159 785.057C478.161 785.057 486.973 784.132 496.665 782.066C553.596 769.927 578.318 744.905 587.883 689.74C593 660.259 601.784 589.855 605.913 552.092C614.631 554.796 625.855 556.034 637.988 556.032C663.293 556.032 692.491 550.686 710.803 542.233C731.372 532.734 768.493 509.421 761.762 489.168ZM626.184 233.983C625.995 245.132 624.452 255.252 622.816 265.818C621.057 277.18 619.236 288.927 618.778 303.188C618.326 317.066 620.068 331.496 621.755 345.448C625.161 373.63 628.656 402.646 615.125 431.276C613.022 427.562 610.992 423.511 609.131 419.023C607.45 414.969 603.799 408.458 598.745 399.445C579.074 364.366 533.011 282.219 556.591 248.698C563.613 238.718 581.438 228.462 626.184 233.983ZM571.948 45.1128C637.526 46.5532 689.399 70.9495 726.129 117.62C754.298 153.419 723.279 316.307 633.481 456.831C632.594 455.711 631.691 454.579 630.756 453.419C630.384 452.955 630.004 452.483 629.621 452.006C652.825 413.896 648.287 376.191 644.249 342.76C642.589 329.041 641.023 316.083 641.421 303.913C641.833 291.009 643.549 279.947 645.206 269.248C647.247 256.062 649.321 242.421 648.748 226.338C649.175 224.652 649.348 222.658 649.125 220.293C647.663 204.87 629.959 158.717 593.869 116.939C574.131 94.0915 545.342 68.5205 506.035 51.2738C522.942 47.7894 546.063 44.5399 571.948 45.1128ZM204.989 537.321C186.854 559.005 174.328 554.85 170.21 553.485C143.373 544.583 112.236 488.18 84.7826 398.737C61.0277 321.344 47.1448 243.522 46.0471 221.699C42.5777 152.683 59.4011 104.583 96.0521 78.7352C155.698 36.6711 253.764 61.8481 293.168 74.6182C292.601 75.1731 292.012 75.6936 291.451 76.2574C226.79 141.198 228.324 252.149 228.482 258.93C228.477 261.547 228.697 265.252 229 270.349C230.113 289.009 232.183 323.741 226.652 363.074C221.511 399.624 232.84 435.399 257.731 461.225C260.308 463.897 262.998 466.408 265.777 468.77C254.696 480.57 230.618 506.661 204.989 537.321ZM274.088 445.637C254.026 424.823 244.915 395.869 249.088 366.193C254.929 324.642 252.772 288.456 251.614 269.015C251.452 266.295 251.309 263.911 251.223 262.03C260.67 253.702 304.445 230.376 335.662 237.489C349.91 240.735 358.588 250.38 362.198 266.974C380.876 352.879 364.671 388.685 351.649 417.456C348.965 423.384 346.43 428.987 344.264 434.784L342.586 439.264C338.337 450.594 334.384 461.127 331.935 471.13C310.61 471.065 289.862 462.007 274.088 445.637ZM277.361 561.492C271.134 559.945 265.533 557.257 262.247 555.029C264.992 553.744 269.877 551.998 278.347 550.263C319.346 541.868 325.676 535.946 339.502 518.488C342.673 514.486 346.266 509.948 351.242 504.422L351.248 504.415C358.661 496.163 362.05 497.561 368.198 500.097C373.182 502.148 378.034 508.358 380.002 515.193C380.933 518.421 381.98 524.549 378.558 529.315C349.674 569.53 307.587 569.013 277.361 561.492ZM491.916 760.039C441.762 770.726 424.005 745.278 412.303 716.186C404.75 697.403 401.038 612.709 403.672 519.182C403.706 517.937 403.528 516.735 403.183 515.605C402.883 513.424 402.421 511.217 401.782 508.996C397.864 495.387 388.32 484.003 376.871 479.285C372.322 477.41 363.971 473.971 353.938 476.523C356.078 467.756 359.79 457.858 363.811 447.137L365.5 442.626C367.401 437.542 369.783 432.276 372.306 426.702C385.932 396.597 404.595 355.364 384.34 262.212C376.753 227.323 351.419 210.286 313.012 214.242C289.986 216.611 268.923 225.85 258.416 231.147C256.157 232.286 254.091 233.385 252.161 234.456C255.092 199.301 266.173 133.606 307.616 92.0403C333.708 65.8711 368.46 52.9473 410.801 53.6431C494.228 55.0022 547.726 97.5777 577.918 133.056C603.934 163.63 618.022 194.425 623.645 211.034C581.364 206.76 552.607 215.061 538.029 235.785C506.315 280.865 555.379 368.366 578.959 410.417C583.283 418.125 587.016 424.785 588.19 427.615C595.868 446.121 605.809 458.476 613.068 467.496C615.292 470.259 617.451 472.939 619.093 475.28C606.287 478.952 583.285 487.434 585.38 529.834C583.69 551.111 571.666 650.72 565.56 685.913C557.498 732.406 540.293 749.725 491.916 760.039ZM701.263 521.8C688.169 527.846 666.255 532.38 645.437 533.352C622.444 534.424 610.74 530.792 607.987 528.558C606.693 502.136 616.584 499.374 627.051 496.452C628.695 495.991 630.3 495.545 631.849 495.006C632.812 495.785 633.866 496.558 635.02 497.316C653.501 509.446 686.464 510.754 732.998 501.203C733.169 501.167 733.34 501.134 733.509 501.1C727.234 506.936 716.493 514.768 701.263 521.8Z" fill="white"/>
</svg>
