<svg width="72" height="71" viewBox="0 0 72 71" fill="none" xmlns="http://www.w3.org/2000/svg">
<path d="M12.75 0H59.25C66.3 0 72 5.7555 72 12.8741V58.0094C72 65.128 66.3 70.8835 59.25 70.8835H12.75C5.7 70.8835 0 65.128 0 58.0094V12.8741C0 5.7555 5.7 0 12.75 0Z" fill="#00005B"/>
<path d="M17.1001 49.7096V18.539C17.1001 18.3269 17.1901 18.2058 17.4001 18.2058L17.8355 18.2051L18.1726 18.202L18.4102 18.1977L18.6631 18.1911L18.9354 18.1815L19.0801 18.1755C19.3501 18.1641 19.6243 18.157 19.9043 18.151L20.7634 18.1329C20.8611 18.1305 20.9597 18.1279 21.0591 18.125L21.3601 18.1149C21.6301 18.1048 21.9068 18.0981 22.1901 18.0925L23.0601 18.0767L23.6623 18.0634L23.9701 18.0543C24.5901 18.0341 25.1968 18.0274 25.799 18.0251L26.7001 18.024C29.1601 18.024 31.2001 18.3269 32.8801 18.9631C34.3801 19.478 35.7601 20.3262 36.9001 21.447C37.8601 22.4164 38.6101 23.5978 39.0901 24.9003C39.5401 26.1726 39.7801 27.4752 39.7801 28.8383C39.7801 31.4434 39.1801 33.5942 37.9801 35.2905C36.7801 36.9869 35.1001 38.2591 33.1501 38.9862C31.1781 39.7182 29.0099 39.9974 26.6454 40.0152L25.7879 40.0151L25.454 40.0117L25.24 40.0064L25.1141 40.0012L25.0009 39.9944L24.9001 39.9858C24.8401 39.9797 24.7753 39.9749 24.7055 39.971L24.559 39.9645L24.3986 39.9601L24.1312 39.9566L23.6101 39.9555V49.6793C23.6401 49.8913 23.4901 50.0731 23.2801 50.1034H17.4601C17.2201 50.1034 17.1001 49.9822 17.1001 49.7096ZM23.6401 24.0521V34.2303L23.9928 34.2555C24.2805 34.2754 24.553 34.2909 24.8101 34.2909H26.4001C27.5701 34.2909 28.7401 34.1091 29.8501 33.7456C30.8101 33.473 31.6501 32.8974 32.3101 32.1401C32.9401 31.3828 33.2401 30.3529 33.2401 29.0201C33.2701 28.081 33.0301 27.1419 32.5501 26.3241C32.0613 25.5693 31.3797 24.9814 30.5581 24.6405L30.4501 24.5974C29.3401 24.143 28.1401 23.9613 26.9101 23.9916L26.2165 23.9924L25.8906 23.9945L25.5793 23.9986L25.2835 24.0053C25.1396 24.0095 25.0016 24.0149 24.8701 24.0219C24.8034 24.0185 24.739 24.0159 24.6768 24.0139L24.4971 24.01C24.4683 24.0096 24.4401 24.0094 24.4124 24.0093L24.2535 24.0104L24.1088 24.0143C24.0859 24.0151 24.0636 24.0161 24.0419 24.0171L23.919 24.0241L23.8109 24.0326C23.7941 24.0341 23.778 24.0357 23.7625 24.0373L23.677 24.0471L23.6401 24.0521ZM43.9801 25.8091H49.2301C49.5134 25.8091 49.7432 25.9982 49.8437 26.2489L49.8601 26.2938C49.9501 26.5361 50.0101 26.7784 50.0401 27.0511C50.1001 27.354 50.1601 27.6872 50.1901 27.9901L50.2151 28.2831C50.2348 28.5335 50.2501 28.7994 50.2501 29.0806C51.1092 28.0686 52.1323 27.2222 53.2933 26.5677L53.4601 26.4755C54.8401 25.6879 56.4301 25.2941 58.0201 25.2941C58.2301 25.2638 58.4101 25.4153 58.4401 25.6273V31.6555C58.4401 31.8978 58.2901 31.9887 57.9601 31.9887C56.9521 31.9604 55.918 32.0377 54.9309 32.2451L54.7201 32.2916C53.8501 32.4733 53.0101 32.746 52.2001 33.1095C51.6301 33.3821 51.0901 33.7456 50.6701 34.2303V49.6793C50.6701 49.9822 50.5501 50.1034 50.2801 50.1034H44.3701C44.1301 50.1336 43.9201 49.9822 43.8901 49.7398V32.8369C43.8901 32.1098 43.8901 31.3525 43.8601 30.5649L43.8423 29.9743L43.8179 28.7929C43.8132 28.596 43.8076 28.3991 43.8001 28.2022C43.8001 27.5054 43.7401 26.839 43.6801 26.1423C43.6501 25.9908 43.7401 25.8394 43.8901 25.8091C43.8901 25.7831 43.9342 25.7794 43.9657 25.798L43.9801 25.8091Z" fill="#9999FF"/>
</svg>
