<svg width="209" height="209" viewBox="0 0 209 209" fill="none" xmlns="http://www.w3.org/2000/svg">
<path d="M182.875 29.3906H13.0625C9.45539 29.3906 6.53125 32.3148 6.53125 35.9219V153.484C6.53125 157.091 9.45539 160.016 13.0625 160.016H182.875C186.482 160.016 189.406 157.091 189.406 153.484V35.9219C189.406 32.3148 186.482 29.3906 182.875 29.3906Z" fill="#E2E7F6"/>
<path d="M195.938 48.9844H189.406V153.484C189.406 155.217 188.718 156.878 187.493 158.103C186.268 159.328 184.607 160.016 182.875 160.016H19.5938V173.078C19.5938 174.81 20.2819 176.472 21.5067 177.696C22.7316 178.921 24.3928 179.609 26.125 179.609H195.938C197.67 179.609 199.331 178.921 200.556 177.696C201.781 176.472 202.469 174.81 202.469 173.078V55.5156C202.469 53.7834 201.781 52.1222 200.556 50.8973C199.331 49.6725 197.67 48.9844 195.938 48.9844Z" fill="#C8CDED"/>
<path d="M13.0625 29.3906C11.3303 29.3906 9.66906 30.0787 8.44421 31.3036C7.21936 32.5284 6.53125 34.1897 6.53125 35.9219V150.219H173.078C174.81 150.219 176.472 149.531 177.696 148.306C178.921 147.081 179.609 145.42 179.609 143.688V29.3906H13.0625Z" fill="#F7FAFD"/>
<path d="M182.875 29.3906H13.0625C11.3303 29.3906 9.66906 30.0787 8.44421 31.3036C7.21936 32.5284 6.53125 34.1897 6.53125 35.9219V55.5156H189.406V35.9219C189.406 34.1897 188.718 32.5284 187.493 31.3036C186.268 30.0787 184.607 29.3906 182.875 29.3906Z" fill="black"/>
<path d="M179.609 29.3906H13.0625C11.3303 29.3906 9.66906 30.0787 8.44421 31.3036C7.21936 32.5284 6.53125 34.1897 6.53125 35.9219V55.5156H179.609V29.3906Z" fill="#00FF00"/>
<path d="M16.3281 39.1875H35.9219V45.7188H16.3281V39.1875Z" fill="black"/>
<path d="M42.4531 39.1875H55.5156V45.7188H42.4531V39.1875Z" fill="black"/>
<path d="M55.5156 140.422C49.1191 140.42 42.8391 138.711 37.3244 135.47C31.8097 132.229 27.2603 127.575 24.1464 121.988C21.0324 116.4 19.4669 110.083 19.6115 103.688C19.7561 97.2932 21.6055 91.053 24.9688 85.6121C28.3321 80.1713 33.0872 75.7271 38.7427 72.7389C44.3983 69.7508 50.7492 68.3269 57.1392 68.6145C63.5291 68.902 69.7264 70.8906 75.0907 74.3747C80.455 77.8589 84.7916 82.7122 87.6526 88.4331L55.5156 104.5V140.422Z" fill="#00FF00"/>
<path d="M68.5781 146.692V110.77L100.715 94.7031C103.454 100.18 104.748 106.267 104.472 112.385C104.197 118.503 102.362 124.449 99.142 129.658C95.922 134.867 91.4236 139.166 86.0743 142.148C80.7249 145.129 74.7022 146.693 68.5781 146.692Z" fill="#00FF00"/>
<path d="M28.4109 80.9448L55.5156 104.5L87.6526 88.4329C85.0111 83.1529 81.1088 78.6054 76.2912 75.1927C71.4735 71.7801 65.889 69.6074 60.0317 68.8671C54.1744 68.1267 48.2248 68.8415 42.7096 70.9481C37.1943 73.0547 32.2832 76.4882 28.4109 80.9448Z" fill="#00FF00"/>
<path d="M117.562 68.5781H176.344V81.6406H117.562V68.5781Z" fill="#00FF00"/>
<path d="M117.562 68.5781H169.812V78.375H117.562V68.5781Z" fill="black"/>
<path d="M127.359 91.4375H153.484V97.9688H127.359V91.4375Z" fill="black"/>
<path d="M160.016 91.4375H179.609V97.9688H160.016V91.4375Z" fill="black"/>
<path d="M127.359 104.5H153.484V111.031H127.359V104.5Z" fill="black"/>
<path d="M160.016 104.5H179.609V111.031H160.016V104.5Z" fill="black"/>
<path d="M127.359 117.562H153.484V124.094H127.359V117.562Z" fill="black"/>
<path d="M160.016 117.562H179.609V124.094H160.016V117.562Z" fill="black"/>
<path d="M127.359 130.625H153.484V137.156H127.359V130.625Z" fill="black"/>
<path d="M160.016 130.625H179.609V137.156H160.016V130.625Z" fill="black"/>
<path d="M71.8438 89.8046C71.847 82.7018 69.6321 75.7752 65.5084 69.992C58.7466 68.0297 51.5571 68.0987 44.8341 70.1905C38.1112 72.2822 32.1517 76.3044 27.6968 81.7567C23.2419 87.209 20.4884 93.8507 19.7787 100.856C19.069 107.861 20.4344 114.92 23.7052 121.155C28.7837 123.411 34.3369 124.392 39.8811 124.012C45.4254 123.632 50.7927 121.902 55.5156 118.973V104.5L71.1514 96.682C71.6128 94.4186 71.8448 92.1145 71.8438 89.8046Z" fill="#0ED7B5"/>
<path d="M71.1515 96.6822C72.0905 92.0842 72.0741 87.3422 71.1034 82.7508C70.1326 78.1594 68.2282 73.8167 65.5084 69.9922C58.9241 68.0915 51.9335 68.1126 45.3608 70.0532C38.788 71.9938 32.907 75.7729 28.4109 80.9451L55.5156 104.5L71.1515 96.6822Z" fill="#7AFF7A"/>
<path d="M90.9085 99.6016L68.5781 110.77V137.075C69.1202 137.111 69.659 137.156 70.2109 137.156C74.5931 137.162 78.8965 135.991 82.6711 133.765C86.4457 131.538 89.553 128.339 91.6682 124.501C93.7834 120.663 94.8288 116.328 94.6952 111.947C94.5615 107.567 93.2537 103.303 90.9085 99.6016Z" fill="#7AFF7A"/>
</svg>
