<svg width="140" height="125" viewBox="0 0 140 125" fill="none" xmlns="http://www.w3.org/2000/svg">
<g clip-path="url(#clip0_361_3)">
<path d="M115.108 40.4752C113.656 39.9741 112.151 39.5 110.601 39.0516C110.856 38.0097 111.09 36.9812 111.298 35.9703C114.709 19.3703 112.479 5.99721 104.862 1.59423C97.5583 -2.62766 85.614 1.77433 73.5508 12.2979C72.3908 13.3099 71.2276 14.3813 70.0648 15.5041C69.29 14.7612 68.5165 14.0433 67.745 13.3566C55.1024 2.10407 42.4302 -2.6379 34.821 1.77783C27.5244 6.01195 25.3636 18.5839 28.4345 34.3159C28.731 35.8354 29.0777 37.3872 29.4697 38.9649C27.6762 39.4753 25.9448 40.0193 24.2881 40.5981C9.46604 45.7782 0 53.8968 0 62.3178C0 71.0151 10.1618 79.7386 25.6001 85.0282C26.8185 85.4456 28.0826 85.8403 29.3854 86.215C28.9626 87.9214 28.5947 89.5935 28.286 91.2245C25.3579 106.683 27.6445 118.958 34.9216 123.166C42.4382 127.511 55.0531 123.045 67.3368 112.281C68.3077 111.43 69.2821 110.528 70.2582 109.582C71.5233 110.804 72.7865 111.959 74.043 113.044C85.9412 123.307 97.6926 127.452 104.963 123.232C112.472 118.875 114.912 105.689 111.744 89.6455C111.502 88.4202 111.221 87.1685 110.904 85.8945C111.79 85.6319 112.66 85.3609 113.508 85.0791C129.558 79.7486 140 71.1313 140 62.3178C140 53.8663 130.229 45.693 115.108 40.4752ZM111.627 79.3884C110.862 79.6425 110.076 79.888 109.276 80.1261C107.504 74.5033 105.113 68.5243 102.186 62.347C104.979 56.3168 107.278 50.4143 109 44.828C110.432 45.2434 111.822 45.6816 113.161 46.1439C126.117 50.6146 134.019 57.2246 134.019 62.3178C134.019 67.743 125.485 74.7856 111.627 79.3884ZM105.877 90.8098C107.278 97.9039 107.478 104.318 106.55 109.332C105.716 113.837 104.039 116.841 101.966 118.044C97.5541 120.604 88.1189 117.276 77.9434 108.499C76.7769 107.493 75.602 106.418 74.4233 105.281C78.3681 100.956 82.3106 95.9287 86.1585 90.3449C92.9265 89.7429 99.3207 88.7587 105.119 87.415C105.405 88.5698 105.659 89.7024 105.877 90.8098ZM47.7292 117.602C43.4185 119.128 39.9853 119.171 37.91 117.972C33.494 115.419 31.6581 105.563 34.1623 92.3426C34.4491 90.8285 34.7905 89.2733 35.184 87.6835C40.9191 88.9548 47.2664 89.8696 54.0506 90.4209C57.9244 95.8848 61.9808 100.907 66.0687 105.304C65.1755 106.169 64.2859 106.992 63.4012 107.767C57.9695 112.526 52.5262 115.903 47.7292 117.602ZM27.5344 79.3552C20.7079 77.0163 15.0703 73.9765 11.2059 70.6594C7.73361 67.6785 5.98051 64.7191 5.98051 62.3178C5.98051 57.2076 13.5808 50.6896 26.2568 46.2593C27.7948 45.7218 29.4049 45.2152 31.0758 44.7393C32.8276 50.4517 35.1257 56.4242 37.899 62.4637C35.0898 68.5928 32.7591 74.6604 30.99 80.4398C29.7989 80.0966 28.6448 79.7354 27.5344 79.3552ZM34.3039 33.1645C31.6728 19.6858 33.4202 9.5179 37.8173 6.96644C42.501 4.24836 52.8579 8.12377 63.7738 17.8398C64.4715 18.4608 65.172 19.1108 65.8745 19.7832C61.8069 24.1615 57.7875 29.146 53.9482 34.5777C47.3638 35.1894 41.0611 36.1721 35.2663 37.4881C34.9019 36.019 34.5792 34.5757 34.3039 33.1645ZM94.6935 48.1124C93.3082 45.7138 91.8861 43.3719 90.4362 41.094C94.9031 41.66 99.1828 42.4114 103.202 43.3309C101.995 47.2073 100.491 51.2604 98.7211 55.4153C97.4512 52.9985 96.108 50.5617 94.6935 48.1124ZM70.0668 24.0678C72.8254 27.0637 75.588 30.4085 78.3053 34.0376C75.5671 33.9079 72.795 33.8405 70 33.8405C67.2314 33.8405 64.4798 33.9064 61.7585 34.0338C64.4785 30.4385 67.265 27.0981 70.0668 24.0678ZM45.2823 48.1538C43.8985 50.5592 42.5802 52.9827 41.3303 55.4108C39.5886 51.2703 38.0987 47.1988 36.8816 43.2675C40.876 42.3714 45.1355 41.6388 49.574 41.0835C48.1037 43.3824 46.6698 45.742 45.2823 48.1538ZM49.7018 83.9797C45.1161 83.4669 40.7925 82.772 36.7991 81.9007C38.0356 77.8991 39.5585 73.7407 41.337 69.511C42.5902 71.9374 43.9137 74.3619 45.306 76.7725C46.7241 79.2283 48.1937 81.6339 49.7018 83.9797ZM70.2323 100.99C67.3976 97.9246 64.5702 94.5333 61.8089 90.8855C64.4895 90.9909 67.2224 91.0449 70 91.0449C72.8536 91.0449 75.6745 90.9804 78.4511 90.8565C75.7248 94.5701 72.9722 97.9666 70.2323 100.99ZM98.7781 69.2955C100.649 73.5708 102.227 77.7075 103.479 81.6409C99.4201 82.5691 95.0374 83.3168 90.4198 83.8723C91.8731 81.5637 93.3077 79.1816 94.7175 76.7313C96.1436 74.2523 97.4978 71.7695 98.7781 69.2955ZM89.5369 73.7362C87.3484 77.5399 85.1017 81.171 82.8207 84.5985C78.6664 84.8963 74.3744 85.0497 70 85.0497C65.6433 85.0497 61.4054 84.914 57.3245 84.6485C54.9517 81.176 52.6561 77.5342 50.4816 73.7689C48.3128 70.0139 46.3172 66.2272 44.5085 62.4617C46.3167 58.6874 48.3076 54.8965 50.4639 51.1482L50.4634 51.1489C52.6254 47.3907 54.9008 43.7666 57.2518 40.3158C61.4154 40.0003 65.6849 39.8357 69.9997 39.8357C74.3341 39.8357 78.6093 40.0016 82.7717 40.3198C85.0867 43.7454 87.3467 47.3577 89.5172 51.1165C91.7124 54.9174 93.7289 58.6832 95.5525 62.3765C93.7344 66.1332 91.7223 69.937 89.5369 73.7362ZM101.874 6.78808C106.563 9.49817 108.386 20.428 105.44 34.7603C105.252 35.6748 105.041 36.6063 104.811 37.5503C99.0027 36.2069 92.6955 35.2072 86.092 34.5862C82.2451 29.0948 78.2587 24.1025 74.2573 19.7805C75.3331 18.743 76.4074 17.7538 77.4772 16.8203C87.8129 7.80377 97.4731 4.24386 101.874 6.78808ZM70 49.786C76.9043 49.786 82.5015 55.3966 82.5015 62.3178C82.5015 69.2388 76.9043 74.8495 70 74.8495C63.0957 74.8495 57.4985 69.2388 57.4985 62.3178C57.4985 55.3966 63.0957 49.786 70 49.786Z" fill="#00D8FF"/>
</g>
<defs>
<clipPath id="clip0_361_3">
<rect width="140" height="125" fill="white"/>
</clipPath>
</defs>
</svg>
