<svg width="47" height="47" viewBox="0 0 47 47" fill="none" xmlns="http://www.w3.org/2000/svg">
<path d="M23.5018 3.91669C34.3177 3.91669 43.0852 12.6841 43.0852 23.5C43.0852 34.3159 34.3177 43.0834 23.5018 43.0834C20.041 43.0893 16.641 42.1734 13.6514 40.4298L3.92632 43.0834L6.57399 33.3544C4.82903 30.3638 3.91242 26.9624 3.91849 23.5C3.91849 12.6841 12.6859 3.91669 23.5018 3.91669ZM16.8278 14.2959L16.4362 14.3115C16.1829 14.329 15.9355 14.3955 15.7077 14.5074C15.4953 14.6278 15.3014 14.7782 15.1319 14.9539C14.8969 15.1751 14.7637 15.3671 14.6208 15.5531C13.8964 16.4949 13.5064 17.6511 13.5124 18.8392C13.5163 19.7988 13.7669 20.7329 14.1586 21.6063C14.9596 23.3727 16.2775 25.2429 18.0165 26.9761C18.4356 27.3932 18.8469 27.8123 19.2894 28.202C21.4503 30.1043 24.0252 31.4763 26.8094 32.2087L27.9218 32.3791C28.2841 32.3987 28.6464 32.3713 29.0106 32.3536C29.5809 32.3236 30.1376 32.1692 30.6419 31.9013C30.8981 31.7688 31.1484 31.625 31.3919 31.4704C31.3919 31.4704 31.4748 31.4143 31.6367 31.2942C31.9011 31.0984 32.0637 30.9593 32.283 30.7302C32.4475 30.5605 32.5846 30.3633 32.6942 30.1388C32.847 29.8196 32.9997 29.2105 33.0624 28.7033C33.1094 28.3156 33.0957 28.1041 33.0898 27.9729C33.082 27.7633 32.9077 27.5459 32.7177 27.4539L31.578 26.9428C31.578 26.9428 29.8742 26.2006 28.8324 25.7266C28.7233 25.6792 28.6065 25.652 28.4877 25.6464C28.3537 25.6323 28.2183 25.6473 28.0906 25.6902C27.9628 25.7331 27.8458 25.803 27.7475 25.8951C27.7377 25.8911 27.6065 26.0028 26.1906 27.7183C26.1093 27.8275 25.9974 27.91 25.8691 27.9553C25.7407 28.0007 25.6018 28.0068 25.4699 27.9729C25.3423 27.9388 25.2173 27.8956 25.0959 27.8436C24.8531 27.7418 24.7689 27.7026 24.6024 27.6321C23.4781 27.1423 22.4373 26.4796 21.518 25.6679C21.2713 25.4525 21.0422 25.2175 20.8072 24.9903C20.0368 24.2524 19.3653 23.4177 18.8097 22.5071L18.6941 22.3211C18.6124 22.1954 18.5454 22.0607 18.4944 21.9196C18.4199 21.6318 18.6138 21.4007 18.6138 21.4007C18.6138 21.4007 19.0897 20.8798 19.311 20.5978C19.5264 20.3236 19.7085 20.0573 19.826 19.8673C20.0571 19.4952 20.1296 19.1134 20.0082 18.8176C19.4598 17.4781 18.8932 16.1458 18.3083 14.8207C18.1928 14.5583 17.8501 14.3703 17.5387 14.3331C17.4329 14.32 17.3272 14.3096 17.2214 14.3017C16.9585 14.2866 16.6948 14.2893 16.4322 14.3096L16.8278 14.2959Z" fill="black"/>
</svg>
