<svg width="180" height="180" viewBox="0 0 180 180" fill="none" xmlns="http://www.w3.org/2000/svg">
<mask id="mask0_258_967" style="mask-type:alpha" maskUnits="userSpaceOnUse" x="13" y="11" width="156" height="156">
<circle cx="90.9772" cy="89.1948" r="77.2521" fill="url(#paint0_radial_258_967)"/>
</mask>
<g mask="url(#mask0_258_967)">
<g filter="url(#filter0_f_258_967)">
<ellipse cx="93.1615" cy="127.288" rx="111.696" ry="61.014" fill="#00FF00"/>
</g>
<g filter="url(#filter1_f_258_967)">
<ellipse cx="92.7021" cy="66.6416" rx="90.862" ry="75.0731" fill="#BBFF77"/>
</g>
</g>
<circle cx="90.0892" cy="90.0828" r="44.3977" fill="white"/>
<path d="M71.4236 138.938C72.3691 139.263 73.1867 139.735 73.8764 140.353C74.5617 140.984 75.1006 141.713 75.4931 142.539C75.8729 143.36 76.0857 144.238 76.1313 145.17C76.177 146.102 76.0392 147.035 75.718 147.968C75.3925 148.913 74.9248 149.739 74.3149 150.446C73.705 151.153 72.9996 151.706 72.1987 152.108C71.3809 152.517 70.5163 152.755 69.6048 152.822C68.6764 152.897 67.7395 152.772 66.794 152.447C65.7602 152.091 64.9132 151.602 64.2531 150.98C63.593 150.357 63.0645 149.64 62.6677 148.826L64.3201 148.02C64.5756 148.63 64.9603 149.171 65.4743 149.644C65.9757 150.113 66.6109 150.48 67.3799 150.745C68.0733 150.983 68.7534 151.076 69.4201 151.024C70.0825 150.984 70.7061 150.811 71.291 150.505C71.8759 150.198 72.3945 149.778 72.8467 149.242C73.2863 148.703 73.632 148.067 73.8837 147.336C74.1355 146.605 74.2542 145.891 74.2399 145.196C74.2131 144.495 74.0635 143.844 73.7911 143.243C73.5187 142.642 73.1359 142.115 72.6428 141.663C72.1454 141.224 71.5499 140.885 70.8565 140.646C70.0371 140.364 69.2792 140.251 68.5829 140.308C67.8823 140.377 67.2437 140.573 66.667 140.896L65.8545 139.263C66.6767 138.841 67.5583 138.594 68.4993 138.523C69.4276 138.448 70.4024 138.586 71.4236 138.938ZM60.1536 140.718L59.2909 142.042L56.1409 139.989C55.4595 139.544 54.8216 139.375 54.2273 139.481C53.633 139.588 53.1429 139.937 52.7571 140.529C52.3931 141.087 52.2753 141.671 52.4036 142.28C52.5208 142.881 52.9201 143.404 53.6015 143.848L56.7683 145.912L55.8728 147.286L52.6558 145.189C51.9185 144.709 51.3709 144.145 51.0128 143.498C50.6475 142.862 50.4798 142.203 50.5097 141.523C50.5284 140.835 50.7453 140.172 51.1602 139.536C51.5898 138.877 52.1155 138.4 52.7374 138.105C53.3482 137.802 54.0182 137.69 54.7476 137.767C55.4697 137.856 56.1993 138.141 56.9366 138.621L60.1536 140.718ZM64.5072 136.346L56.9284 147.974L55.3534 146.948L62.9321 135.319L64.5072 136.346ZM57.805 131.978L58.6311 139.94L56.8013 139.488L55.8111 130.678L57.805 131.978ZM54.4426 129.347L44.4463 138.976L43.142 137.622L53.1383 127.993L54.4426 129.347ZM53.5545 128.425L52.3158 129.618L46.7934 123.885L48.0321 122.692L53.5545 128.425ZM49.0317 132.782L47.8506 133.919L42.7861 128.662L43.9672 127.524L49.0317 132.782ZM44.797 136.861L43.5583 138.054L38.1052 132.394L39.3439 131.2L44.797 136.861ZM47.0926 121.52L32.2789 123.859L31.5738 122.696L40.5086 110.66L41.5662 112.405L33.9429 122.476L33.58 121.877L46.0558 119.81L47.0926 121.52ZM43.0078 120.839L41.6054 121.69L37.8209 115.447L39.2233 114.597L43.0078 120.839ZM39.6074 106.844L26.7947 111.033L26.2105 109.246L39.0231 105.057L39.6074 106.844ZM29.5161 115.109L27.8813 115.644L24.3698 104.903L26.0046 104.368L29.5161 115.109ZM37.2424 98.4137L23.4152 99.6232L23.2514 97.7503L37.0786 96.5408L37.2424 98.4137ZM37.1309 97.1385L35.4174 97.2884L34.7238 89.3587L36.4372 89.2088L37.1309 97.1385ZM30.8748 97.6858L29.241 97.8287L28.6049 90.5564L30.2386 90.4135L30.8748 97.6858ZM25.0171 98.1981L23.3037 98.348L22.6188 90.5179L24.3322 90.368L25.0171 98.1981ZM37.0384 82.5855L23.6208 79.0327L23.9587 77.7567L34.8019 74.5452L34.5716 75.4152L26.7385 67.2585L27.0763 65.9824L40.4939 69.5352L40.0127 71.3526L29.7852 68.6445L30.0138 68.2499L36.1923 74.6857L35.8544 75.9618L27.3006 78.4967L27.2921 78.06L37.5196 80.7681L37.0384 82.5855ZM45.3318 61.4058C44.8028 62.2387 44.1577 62.9189 43.3963 63.4462C42.6237 63.9664 41.7901 64.3215 40.8955 64.5115C39.9896 64.6944 39.0744 64.7055 38.1498 64.5448C37.2323 64.3728 36.3571 64.0223 35.5242 63.4934C34.6801 62.9573 33.9907 62.3142 33.4562 61.5641C32.9176 60.7956 32.5405 59.9717 32.325 59.0924C32.1166 58.2019 32.0856 57.3056 32.232 56.4035C32.3856 55.4902 32.7268 54.6171 33.2558 53.7842C33.7847 52.9513 34.4263 52.2768 35.1805 51.7607C35.9419 51.2333 36.7699 50.8746 37.6645 50.6846C38.5591 50.4946 39.4687 50.48 40.3933 50.6407C41.3179 50.8014 42.2023 51.1498 43.0464 51.6859C43.8793 52.2148 44.5651 52.8636 45.1037 53.6321C45.6423 54.4006 46.0158 55.2301 46.2242 56.1206C46.4398 56.9999 46.4764 57.8997 46.3341 58.8202C46.1877 59.7223 45.8536 60.5842 45.3318 61.4058ZM43.7909 60.4746C44.3269 59.6305 44.6038 58.7717 44.6214 57.8984C44.6349 57.0066 44.4219 56.1606 43.9825 55.3603C43.5318 54.5529 42.8674 53.8704 41.9895 53.3128C41.3367 52.8983 40.6723 52.6263 39.9962 52.4971C39.3089 52.3607 38.6411 52.3552 37.9929 52.4805C37.3446 52.6059 36.7492 52.8596 36.2065 53.2415C35.6526 53.6163 35.1755 54.1188 34.7752 54.7491C34.2463 55.582 33.9694 56.4408 33.9447 57.3254C33.9271 58.1987 34.138 59.0355 34.5775 59.8358C35.0241 60.6249 35.6863 61.2982 36.5642 61.8557C37.2171 62.2703 37.8892 62.555 38.5806 62.7098C39.268 62.8462 39.9322 62.8573 40.5732 62.7432C41.2102 62.6107 41.8056 62.3571 42.3596 61.9823C42.9206 61.5962 43.3977 61.0937 43.7909 60.4746ZM47.4505 48.2465L46.386 47.0789L49.1647 44.5458C49.7658 43.9978 50.0896 43.4229 50.1363 42.821C50.183 42.2192 49.9684 41.6571 49.4923 41.1349C49.0431 40.6422 48.5078 40.3815 47.8862 40.3528C47.2745 40.315 46.6681 40.5701 46.067 41.1181L43.2735 43.6646L42.1687 42.4527L45.0065 39.8657C45.6568 39.2728 46.3402 38.8844 47.0565 38.7005C47.7639 38.5067 48.4433 38.5098 49.0947 38.7098C49.756 38.9008 50.3427 39.2771 50.8547 39.8388C51.3846 40.4201 51.7142 41.0488 51.8434 41.7249C51.9825 42.392 51.9229 43.0688 51.6646 43.7553C51.3974 44.4319 50.9386 45.0667 50.2883 45.6595L47.4505 48.2465ZM50.5884 53.559L41.2375 43.3015L42.6269 42.035L51.9778 52.2924L50.5884 53.559ZM56.5005 48.1694L48.5855 46.9682L49.4833 45.3108L58.2593 46.566L56.5005 48.1694ZM59.8931 45.5751L53.0851 33.4795L54.7234 32.5573L61.5314 44.653L59.8931 45.5751ZM61.0085 44.9473L60.1649 43.4484L67.1016 39.5441L67.9452 41.043L61.0085 44.9473ZM57.9282 39.4746L57.1238 38.0455L63.4854 34.4649L64.2898 35.8941L57.9282 39.4746ZM55.0442 34.3505L54.2005 32.8516L61.0501 28.9964L61.8937 30.4953L55.0442 34.3505ZM79.8331 31.1676L79.331 28.068L77.1736 30.2048L75.732 28.2227L78.4075 26.815L75.7854 25.4415L77.2344 23.4351L79.3255 25.559L79.8286 22.546L82.1776 23.3345L80.8028 26.0783L83.8493 25.6249L83.8289 28.0974L80.8158 27.5943L82.2025 30.3945L79.8331 31.1676ZM99.4743 37.6392L102.229 24.4437L104.069 24.828L101.315 38.0235L99.4743 37.6392ZM97.339 24.7713L97.6905 23.0876L108.752 25.3969L108.401 27.0806L97.339 24.7713ZM107.946 39.8215L114.049 27.3551L115.737 28.1817L109.635 40.6481L107.946 39.8215ZM115.994 43.761L122.096 31.2945L123.785 32.1211L117.682 44.5876L115.994 43.761ZM111.875 34.7079L112.631 33.1631L119.942 36.742L119.186 38.2869L111.875 34.7079ZM120.435 46.2654L128.691 35.1075L130.202 36.2257L121.947 47.3836L120.435 46.2654ZM124.38 49.5522L134.513 40.0665L135.415 41.0302L134.207 42.9288L125.665 50.9247L124.38 49.5522ZM130.941 56.5606L133.426 42.5635L135.415 41.0302L132.958 55.0282L130.941 56.5606ZM130.941 56.5606L132.062 54.744L140.691 46.6661L141.976 48.0386L131.843 57.5242L130.941 56.5606ZM137.827 67.6624L140.832 58.0507L149.946 60.8949L151.114 63.0371L141.32 59.9486L142.233 59.4508L139.023 69.8573L137.827 67.6624ZM133.719 60.1295L145.905 53.4848L146.805 55.1354L134.619 61.78L133.719 60.1295ZM140.728 75.3934L154.334 72.6509L154.705 74.4938L141.099 77.2363L140.728 75.3934ZM140.98 76.6482L142.667 76.3083L144.137 83.6016L142.451 83.9415L140.98 76.6482ZM142.555 86.2227L156.434 86.431L156.405 88.3108L142.527 88.1025L142.555 86.2227ZM142.536 87.5026L144.256 87.5284L144.136 95.4875L142.417 95.4617L142.536 87.5026ZM148.815 87.5968L150.455 87.6214L150.346 94.9206L148.706 94.896L148.815 87.5968ZM154.695 87.685L156.414 87.7108L156.296 95.57L154.577 95.5442L154.695 87.685ZM141 101.324C141.241 100.258 141.642 99.3914 142.203 98.7254C142.764 98.0594 143.481 97.5176 144.354 97.1001L145.32 98.631C144.625 98.9248 144.058 99.316 143.62 99.8046C143.194 100.296 142.888 100.952 142.703 101.771C142.521 102.577 142.551 103.261 142.793 103.821C143.032 104.395 143.457 104.751 144.069 104.889C144.576 105.004 145.012 104.979 145.377 104.816C145.742 104.652 146.068 104.391 146.354 104.032C146.65 103.689 146.93 103.301 147.192 102.868C147.467 102.438 147.748 102.01 148.036 101.583C148.337 101.159 148.668 100.783 149.03 100.454C149.404 100.129 149.847 99.8942 150.358 99.7501C150.866 99.619 151.464 99.6314 152.154 99.7873C152.921 99.9609 153.53 100.29 153.981 100.775C154.442 101.276 154.743 101.877 154.885 102.579C155.037 103.297 155.022 104.059 154.839 104.865C154.639 105.749 154.284 106.503 153.774 107.126C153.277 107.752 152.699 108.222 152.04 108.538L151.074 107.007C151.633 106.71 152.083 106.354 152.423 105.938C152.76 105.536 152.996 105.036 153.132 104.438C153.296 103.709 153.265 103.094 153.037 102.591C152.822 102.092 152.428 101.777 151.856 101.647C151.401 101.544 151.004 101.578 150.665 101.747C150.336 101.932 150.029 102.198 149.746 102.544C149.463 102.89 149.184 103.278 148.909 103.708C148.644 104.154 148.361 104.589 148.06 105.013C147.759 105.437 147.415 105.81 147.027 106.133C146.64 106.455 146.179 106.679 145.645 106.804C145.121 106.945 144.501 106.935 143.786 106.773C142.59 106.502 141.747 105.874 141.259 104.889C140.769 103.917 140.682 102.728 141 101.324ZM137.585 111.387C138.037 110.392 138.605 109.625 139.289 109.086C139.974 108.548 140.786 108.162 141.726 107.93L142.362 109.625C141.621 109.772 140.987 110.04 140.458 110.43C139.942 110.825 139.51 111.405 139.162 112.17C138.82 112.922 138.711 113.598 138.835 114.196C138.953 114.806 139.297 115.241 139.868 115.5C140.341 115.715 140.773 115.78 141.164 115.693C141.555 115.607 141.926 115.418 142.279 115.124C142.639 114.848 142.991 114.525 143.335 114.154C143.692 113.789 144.054 113.426 144.423 113.066C144.803 112.712 145.204 112.411 145.624 112.162C146.057 111.92 146.538 111.779 147.068 111.742C147.592 111.716 148.175 111.85 148.819 112.142C149.535 112.468 150.065 112.913 150.408 113.479C150.758 114.063 150.931 114.713 150.928 115.429C150.931 116.163 150.762 116.906 150.42 117.659C150.045 118.484 149.545 119.15 148.919 119.657C148.306 120.169 147.644 120.513 146.935 120.688L146.299 118.993C146.907 118.816 147.419 118.558 147.836 118.22C148.248 117.895 148.581 117.453 148.834 116.894C149.143 116.214 149.237 115.605 149.116 115.067C149.006 114.534 148.684 114.146 148.15 113.903C147.726 113.71 147.33 113.662 146.964 113.759C146.604 113.874 146.25 114.072 145.903 114.354C145.555 114.635 145.203 114.959 144.847 115.324C144.497 115.707 144.132 116.075 143.751 116.43C143.37 116.784 142.958 117.08 142.513 117.317C142.068 117.554 141.572 117.68 141.024 117.695C140.482 117.727 139.877 117.591 139.209 117.288C138.093 116.78 137.395 115.995 137.117 114.931C136.833 113.879 136.989 112.698 137.585 111.387ZM135.218 127.287L137.628 129.299L137.858 126.272L140.246 126.824L139.147 129.641L142.028 128.96L142.248 131.425L139.277 131.191L140.871 133.797L138.58 134.74L137.821 131.767L135.816 134.106L134.212 132.225L136.817 130.63L133.935 129.424L135.218 127.287Z" fill="black"/>
<defs>
<filter id="filter0_f_258_967" x="-68.5342" y="16.274" width="323.391" height="222.028" filterUnits="userSpaceOnUse" color-interpolation-filters="sRGB">
<feFlood flood-opacity="0" result="BackgroundImageFix"/>
<feBlend mode="normal" in="SourceGraphic" in2="BackgroundImageFix" result="shape"/>
<feGaussianBlur stdDeviation="25" result="effect1_foregroundBlur_258_967"/>
</filter>
<filter id="filter1_f_258_967" x="-48.1599" y="-58.4315" width="281.724" height="250.146" filterUnits="userSpaceOnUse" color-interpolation-filters="sRGB">
<feFlood flood-opacity="0" result="BackgroundImageFix"/>
<feBlend mode="normal" in="SourceGraphic" in2="BackgroundImageFix" result="shape"/>
<feGaussianBlur stdDeviation="25" result="effect1_foregroundBlur_258_967"/>
</filter>
<radialGradient id="paint0_radial_258_967" cx="0" cy="0" r="1" gradientUnits="userSpaceOnUse" gradientTransform="translate(111.78 150.195) rotate(-108.684) scale(159.271)">
<stop stop-color="#533FE7"/>
<stop offset="1" stop-color="#70E000"/>
</radialGradient>
</defs>
</svg>
