<svg width="140" height="96" viewBox="0 0 140 96" fill="none" xmlns="http://www.w3.org/2000/svg">
<g clip-path="url(#clip0_438_1052)">
<path d="M41.6481 63.3484L45.9028 77.236C46.8586 80.3891 47.2573 82.5902 47.0978 83.8449C49.4248 77.5754 51.0505 70.7431 51.9754 63.3484H57.0913C54.8917 75.3871 51.9902 84.1357 48.3889 89.5932C45.5829 93.7985 42.5089 95.9011 39.1616 95.9011C38.2693 95.9011 37.1689 95.6299 35.8632 95.0913V92.1892C36.5011 92.2834 37.2496 92.3337 38.1104 92.3337C39.672 92.3337 40.9305 91.8983 41.888 91.0294C43.0346 89.9707 43.6084 88.7807 43.6084 87.462C43.6084 86.5612 43.1608 84.7129 42.2697 81.917L36.3416 63.3484H41.6481ZM9.08644 54.8125L16.8794 78.7319H16.9273L24.7681 54.8125H31.174C32.5768 66.6747 33.4051 77.5284 33.6595 87.3661H28.2586C28.0687 78.1697 27.5421 69.522 26.6815 61.4214H26.6339L18.4096 87.3661H14.2969L6.12246 61.4214H6.0743C5.46776 69.2009 5.08617 77.8486 4.92704 87.3661H0.00195312C0.320222 75.7913 1.11673 64.941 2.39147 54.8125H9.08644Z" fill="#00758F"/>
<path d="M96.3857 54.3291C104.768 54.3291 108.96 59.7169 108.96 70.4866C108.96 76.3391 107.699 80.7597 105.181 83.7464C104.727 84.2921 104.225 84.7634 103.697 85.2004L109.629 88.151L109.623 88.1507L107.517 91.8097L99.7917 87.2751C98.5111 87.6566 97.1022 87.8473 95.5667 87.8473C91.4509 87.8473 88.3765 86.6405 86.3436 84.2302C84.1124 81.5636 82.9976 77.3657 82.9976 71.6436C82.9976 65.8242 84.2557 61.4203 86.7752 58.43C89.0697 55.6947 92.2741 54.3291 96.3857 54.3291ZM70.7159 54.3767C73.712 54.3767 76.4364 55.1832 78.8901 56.7905L77.6437 59.5842C75.5441 58.6863 73.4737 58.2356 71.4324 58.2356C69.7761 58.2356 68.4997 58.6367 67.6099 59.4437C66.7151 60.2437 66.1618 61.2731 66.1618 62.5279C66.1618 64.4558 67.5274 66.1281 70.0486 67.541C70.7268 67.912 71.6102 68.4067 72.518 68.9194L72.7061 69.0258C72.7375 69.0435 72.7689 69.0613 72.8003 69.079L72.9888 69.1857C73.0202 69.2035 73.0516 69.2213 73.0829 69.2391L73.271 69.3457C75.1797 70.4282 76.9755 71.4614 76.9755 71.4614C79.4966 73.2617 80.7531 75.1811 80.7531 78.3425C80.7531 81.1033 79.7474 83.3697 77.7428 85.143C75.7366 86.9085 73.0413 87.7937 69.6661 87.7937C66.5093 87.7937 63.4499 86.7749 60.4863 84.7541L61.8727 81.9578C64.423 83.2437 66.7309 83.8858 68.803 83.8858C70.7467 83.8858 72.2681 83.4495 73.3687 82.5874C74.4668 81.7191 75.125 80.5081 75.125 78.9721C75.125 77.0392 73.7886 75.3869 71.3366 74.0009C70.7 73.6485 69.8845 73.1882 69.0412 72.7087L68.8534 72.6019C68.5084 72.4055 68.1607 72.2071 67.8205 72.0125L67.6357 71.9068C65.9803 70.9595 64.5488 70.1318 64.5488 70.1318C62.0977 68.3282 60.8688 66.393 60.8688 63.2045C60.8688 60.5674 61.7852 58.4359 63.6157 56.8142C65.4503 55.1892 67.8173 54.3767 70.7159 54.3767ZM118.811 54.8122V83.3613H128.993V87.3658H113.647V54.8122H118.811ZM134.651 83.3738V84.0504H133.532V87.3624H132.676V84.0504H131.513V83.3738H134.651ZM136.718 83.3738L137.793 86.0926L138.78 83.3738H139.994V87.3624H139.187V84.3268L138.063 87.3624H137.482L136.356 84.3268H136.313V87.3624H135.549V83.3738H136.718ZM95.8583 58.3326C90.9185 58.3326 88.4473 62.4338 88.4473 70.631C88.4473 75.3264 89.1022 78.7316 90.4094 80.8536C91.62 82.8177 93.5163 83.7976 96.0983 83.7976C101.038 83.7976 103.509 79.6646 103.509 71.4018C103.509 66.772 102.854 63.3963 101.549 61.2733C100.337 59.3135 98.4411 58.3326 95.8583 58.3326Z" fill="#F29111"/>
<path d="M82.9106 2.01716C84.5495 -2.03356 90.2791 1.0339 92.5029 2.44912C93.0477 2.80293 93.6726 3.55089 94.2975 3.82738C95.2723 3.86604 96.2463 3.94251 97.2227 3.98369C99.054 4.4165 100.77 4.7703 102.213 5.59725C108.92 9.57066 113.285 13.6197 117.304 20.3076C118.162 21.7245 118.591 23.2574 119.292 24.7903C120.266 27.0753 121.36 29.4738 122.489 31.6347C122.995 32.659 123.387 33.7981 124.089 34.6632C124.363 35.0587 125.142 35.1752 125.608 35.4116C126.895 36.0819 128.455 36.5908 129.665 37.3776C131.927 38.7958 134.113 40.4859 136.1 42.2159C136.841 42.8839 137.345 43.8294 138.051 44.5358V44.8923C137.425 45.0857 136.801 45.2837 136.176 45.4422C134.811 45.7952 133.602 45.7153 132.278 46.0683C131.46 46.3069 130.444 46.622 129.586 46.7019C129.624 46.7406 129.665 46.7823 129.665 46.7823C130.17 48.2332 132.901 49.4134 134.15 50.281C135.667 51.3825 137.073 52.7185 138.204 54.2522C138.595 54.6439 138.986 55.0001 139.375 55.3904C139.647 55.786 139.723 56.2974 139.998 56.6504V56.7695C139.694 56.6614 139.475 56.4552 139.267 56.2394L139.143 56.1095C139.019 55.9798 138.894 55.8531 138.752 55.7482C137.891 55.1567 137.036 54.4492 136.176 53.8994C134.696 52.9549 132.98 52.4066 131.46 51.4586C130.601 50.908 129.782 50.281 128.963 49.6514C128.221 49.0993 127.403 48.0389 126.937 47.2523C126.662 46.8177 126.624 46.3069 126.31 45.9927C126.366 45.4675 126.845 45.3113 127.327 45.1831L127.438 45.1539C127.605 45.1103 127.768 45.0669 127.91 45.0096C129.937 44.1435 132.354 43.8294 135.475 43.9081C135.357 43.1197 133.407 42.1375 132.785 41.6654C131.535 40.7593 130.212 39.8139 128.886 38.9893C128.184 38.5572 126.973 38.2421 126.195 37.8892C125.142 37.4562 122.802 37.0235 122.218 36.1989C121.227 34.8989 120.515 33.3484 119.824 31.7819L119.636 31.3545C119.573 31.212 119.51 31.0696 119.447 30.9273C118.63 29.0412 117.615 27.0747 116.796 25.1435C116.368 24.2014 116.171 23.3744 115.702 22.471C112.857 16.9261 108.645 12.2837 103.539 9.01877C101.861 7.9565 99.9897 6.97324 97.9242 6.30512C96.7536 5.94963 95.3489 6.14629 94.1017 5.87316H93.281C92.5803 5.67482 91.9954 4.9277 91.4489 4.53356C90.2416 3.70913 89.0327 3.15531 87.5888 2.56703C87.0831 2.33088 85.6384 1.78127 85.1343 2.21407C84.8219 2.29306 84.6636 2.41157 84.587 2.72672C84.2762 3.19734 84.5495 3.9058 84.7428 4.33944C85.3285 5.59668 86.1466 6.34379 86.889 7.40605C87.5497 8.34814 88.3704 9.4104 88.8386 10.4348C89.8492 12.6367 90.32 15.0764 91.2564 17.2782C91.6039 18.106 92.1529 19.0481 92.6587 19.7952C93.0869 20.3877 93.8659 20.8163 94.1017 21.5668C94.5716 22.3534 93.3985 24.9493 93.1269 25.7738C92.1113 28.9995 92.3079 33.4833 93.4776 36.2796C93.4985 36.3284 93.5193 36.3776 93.54 36.427L93.6024 36.5762C94.0295 37.6003 94.4866 38.703 95.6222 38.9895C95.7005 38.9114 95.6222 38.9525 95.7772 38.9114C96.0521 36.747 96.1296 34.6628 96.8711 32.9695C97.2994 31.9108 98.155 31.1623 98.7416 30.298C99.1323 30.5334 99.1323 31.2434 99.3656 31.7132C99.873 32.9318 100.418 34.2679 101.044 35.49C102.328 38.007 103.772 40.4471 105.409 42.6489C105.958 43.4351 106.736 44.3008 107.437 45.0092C107.75 45.2833 108.1 45.4419 108.335 45.7948H108.411V45.9136C107.242 45.4797 106.5 44.2623 105.567 43.5516C103.811 42.2156 101.707 40.2091 100.496 38.2838C99.9897 37.1787 99.4423 36.1194 98.8966 35.0197V34.9402C98.6633 35.2544 98.7416 35.5662 98.6249 36.0416C98.1184 38.007 98.5083 40.2491 96.7537 40.9559C94.7649 41.7839 93.281 39.6198 92.6587 38.6366C90.6691 35.3725 90.1242 29.8663 91.5272 25.4214C91.8388 24.4373 91.8813 23.2574 92.4254 22.4716C92.3079 21.7615 91.7638 21.5673 91.4489 21.132C90.9032 20.3883 90.4358 19.5218 90.0084 18.6957C89.1877 17.0821 88.6036 15.1543 87.9804 13.4239C87.7063 12.7171 87.628 12.0078 87.3547 11.3389C86.889 10.3178 86.03 9.29332 85.3676 8.3899C84.4703 7.09148 81.8575 4.57533 82.9106 2.01716ZM95.6997 9.72325C95.8038 9.8283 95.9296 9.92019 96.0597 10.0105L96.2168 10.119C96.426 10.2646 96.6284 10.4182 96.7528 10.6275C96.9494 10.904 96.9861 11.1771 97.2219 11.4545C97.2219 12.3999 96.9494 13.0286 96.3996 13.4202C96.3996 13.4202 96.3621 13.4614 96.3237 13.5C96.0121 12.8697 95.7389 12.2428 95.4248 11.6133C95.0382 11.0637 94.4916 10.6275 94.1767 9.99976H94.1009V9.92077C94.5716 9.80395 95.0382 9.72325 95.6997 9.72325Z" fill="#00758F"/>
</g>
<defs>
<clipPath id="clip0_438_1052">
<rect width="140" height="96" fill="white"/>
</clipPath>
</defs>
</svg>
