<svg width="96" height="58" viewBox="0 0 96 58" fill="none" xmlns="http://www.w3.org/2000/svg">
<path d="M48 0C35.2 0 27.2 6.42753 24 19.2826C28.8 12.8551 34.4 10.4447 40.8 12.0516C44.4516 12.9684 47.0615 15.6289 49.9504 18.5739C54.6565 23.3714 60.1033 28.9239 72 28.9239C84.8 28.9239 92.8 22.4963 96 9.64129C91.2 16.0688 85.6 18.4791 79.2 16.8723C75.5484 15.9554 72.9385 13.295 70.0496 10.3499C65.3435 5.55249 59.8967 0 48 0ZM24 28.9239C11.2 28.9239 3.2 35.3514 0 48.2065C4.8 41.7789 10.4 39.3686 16.8 40.9755C20.4516 41.8923 23.0615 44.5528 25.9504 47.4978C30.6565 52.2953 36.1033 57.8478 48 57.8478C60.8 57.8478 68.8 51.4202 72 38.5652C67.2 44.9927 61.6 47.403 55.2 45.7961C51.5484 44.8793 48.9385 42.2189 46.0496 39.2738C41.3435 34.4764 35.8967 28.9239 24 28.9239Z" fill="url(#paint0_linear_346_53)"/>
<defs>
<linearGradient id="paint0_linear_346_53" x1="-2.66667" y1="18.5113" x2="80.4223" y2="66.2132" gradientUnits="userSpaceOnUse">
<stop stop-color="#2298BD"/>
<stop offset="1" stop-color="#0ED7B5"/>
</linearGradient>
</defs>
</svg>
