<svg width="220" height="220" viewBox="0 0 220 220" fill="none" xmlns="http://www.w3.org/2000/svg">
<path d="M137.558 44.8145L131.54 48.3428L131.293 48.4873V56.7031L132.046 56.2617L138.064 52.7334L138.311 52.5889V44.373L137.558 44.8145ZM152.71 36.0967L146.69 39.625L146.443 39.7705V47.7783L147.196 47.3369L153.215 43.8086L153.463 43.6641V35.6553L152.71 36.0967ZM168.068 27.3799L162.049 30.9082L161.802 31.0537V39.2686L162.555 38.8281L168.574 35.2998L168.821 35.1543V26.9385L168.068 27.3799ZM43.6698 198.413C43.2547 88.6188 43.2548 108.754 43.2548 86.3398C43.2548 84.2643 43.9493 81.9615 45.1093 79.9189C46.2698 77.8755 47.8713 76.1366 49.6395 75.1543L49.6464 75.1504L159.625 11.6523C161.507 10.7122 163.094 10.5378 164.307 11.1035L164.545 11.2266C166.831 12.5775 168.73 13.6191 170.281 14.4883C171.841 15.3625 173.034 16.0545 173.939 16.7207C174.839 17.3831 175.423 17.9979 175.79 18.7002C176.156 19.4008 176.33 20.2353 176.33 21.3779V21.3838C176.381 25.7117 176.407 25.9839 176.429 26.1416C176.431 26.162 176.438 26.1605 176.443 26.6797C176.448 27.1883 176.453 28.1762 176.46 30.1484C176.473 34.092 176.492 41.9658 176.534 57.8037L176.745 133.247C176.745 135.322 176.05 137.624 174.891 139.666C173.73 141.709 172.129 143.448 170.361 144.431L170.353 144.435L60.3583 207.941C58.789 208.824 57.6028 208.903 56.8094 208.79C56.408 208.733 56.0925 208.625 55.8641 208.529C55.7479 208.481 55.6565 208.437 55.5741 208.398C55.5364 208.381 55.4912 208.359 55.4491 208.343C55.4416 208.34 55.4231 208.334 55.3973 208.325L45.702 202.755H45.701C44.451 202.041 43.6698 200.58 43.6698 198.415V198.413ZM175.878 133.452L175.67 39.6406L175.668 38.7764L174.92 39.209L99.8114 82.5713C99.7488 82.6016 99.6328 82.6163 99.495 82.5703C99.3908 82.5355 99.3169 82.481 99.2733 82.4297L99.2401 82.3799C98.2141 80.1175 96.302 79.0975 94.0204 79.0625C91.7695 79.0281 89.1582 79.945 86.5985 81.502C81.4765 84.6174 76.3524 90.4204 74.4442 96.9932L74.4247 97.0615V97.1318C74.4247 97.155 74.422 97.172 74.4208 97.1836C74.407 97.1942 74.3924 97.2063 74.3661 97.2256C74.3407 97.2442 74.3083 97.2677 74.2723 97.2969L74.1561 97.4014C74.1462 97.4113 74.1184 97.4398 74.0878 97.4844C73.9252 97.5935 73.5084 97.8524 72.4657 98.4658C70.2628 99.7616 65.3359 102.614 54.3358 108.944L54.0848 109.088V109.377C54.0848 147.981 54.0852 154.014 54.1727 175.632L54.2928 204.229C54.2932 205.857 54.7816 207.171 55.8348 207.796C56.8933 208.424 58.2975 208.225 59.8143 207.358L59.8163 207.357L169.815 143.848C171.471 142.96 172.978 141.329 174.07 139.465C175.166 137.594 175.878 135.432 175.878 133.453V133.452Z" fill="#00FF00" stroke="black"/>
<path d="M125.359 152.547C124.528 152.963 123.906 154.208 123.906 155.246V158.359C123.906 159.396 124.528 159.812 125.359 159.189C126.189 158.774 126.811 157.529 126.811 156.491V153.378C127.019 152.34 126.189 151.925 125.359 152.547Z" fill="black"/>
<path d="M99.8303 167.283C99.0001 167.698 98.3774 168.943 98.3774 169.981V173.094C98.3774 174.132 99.0001 174.547 99.8303 173.924C100.66 173.509 101.283 172.264 101.283 171.226V168.113C101.283 167.283 100.66 166.868 99.8303 167.283Z" fill="black"/>
<path d="M116.849 157.529C116.019 157.944 115.396 159.189 115.396 160.227V163.34C115.396 164.378 116.019 164.793 116.849 164.17C117.679 163.755 118.302 162.51 118.302 161.472V158.359C118.302 157.321 117.679 156.906 116.849 157.529Z" fill="black"/>
<path d="M108.34 162.302C107.509 162.717 106.887 163.962 106.887 165V168.113C106.887 169.151 107.509 169.566 108.547 168.943C109.377 168.528 110 167.283 110 166.245V163.132C109.793 162.302 109.17 161.886 108.34 162.302Z" fill="black"/>
<path d="M133.868 147.566C133.038 147.981 132.415 149.226 132.415 150.264V153.377C132.415 154.415 133.038 154.83 133.868 154.207C134.698 153.792 135.321 152.547 135.321 151.509V148.396C135.528 147.358 134.906 147.151 133.868 147.566Z" fill="black"/>
<path d="M114.981 101.075C121.623 104.811 126.189 107.509 132.208 110.83L129.094 116.434L143 111.245L140.51 96.7166L137.396 102.32C130.962 98.5846 126.604 96.094 120.17 92.5657L123.283 86.9619L109.377 92.1506L111.868 106.679L114.981 101.075Z" fill="#00FF00"/>
<path d="M145.491 133.66L90.283 165.415L90.0755 103.151C90.0755 102.113 89.4528 101.698 88.6226 102.321C87.7924 102.736 87.1698 103.981 87.1698 105.019L87.3773 169.151C87.3773 170.189 88 170.604 89.0377 169.981L145.698 137.189C147.566 135.944 147.566 132.415 145.491 133.66Z" fill="black"/>
<path d="M82.3963 169.566L79.6982 171.226C78.868 171.641 78.2454 172.887 78.2454 173.924C78.2454 174.962 78.868 175.377 79.6982 174.755L82.3963 173.094C83.2265 172.679 83.8491 171.434 83.8491 170.396C84.0567 169.358 83.2265 168.943 82.3963 169.566Z" fill="black"/>
<path d="M79.6981 164.793L82.3962 163.132C83.2264 162.717 83.849 161.472 83.849 160.434C83.849 159.397 83.2264 158.981 82.3962 159.604L79.6981 161.264C78.8679 161.68 78.2453 162.925 78.2453 163.963C78.0377 165 78.8679 165.415 79.6981 164.793Z" fill="black"/>
<path d="M79.6982 145.076L82.3963 143.416C83.2265 143 83.8491 141.755 83.8491 140.717C83.8491 139.68 83.2265 139.265 82.3963 139.887L79.6982 141.548C78.868 141.963 78.2453 143.208 78.2453 144.246C78.0378 145.283 78.6604 145.699 79.6982 145.076Z" fill="black"/>
<path d="M79.4906 125.566L82.1887 123.906C83.0189 123.491 83.6415 122.245 83.6415 121.208C83.6415 120.17 83.0189 119.755 82.1887 120.378L79.4906 122.038C78.6604 122.453 78.0377 123.698 78.0377 124.736C78.0377 125.566 78.6604 125.981 79.4906 125.566Z" fill="black"/>
<path d="M79.6981 155.038L82.3962 153.377C83.2264 152.962 83.849 151.717 83.849 150.679C83.849 149.642 83.2264 149.227 82.3962 149.849L79.6981 151.51C78.8679 151.925 78.2453 153.17 78.2453 154.208C78.0377 155.038 78.8679 155.453 79.6981 155.038Z" fill="black"/>
<path d="M79.4906 135.321L82.1887 133.661C83.0189 133.246 83.6415 132 83.6415 130.963C83.6415 129.925 83.0189 129.51 82.1887 130.132L79.4906 131.793C78.6604 132.208 78.0377 133.453 78.0377 134.491C78.0377 135.321 78.6604 135.944 79.4906 135.321Z" fill="black"/>
<path d="M142.585 142.585C141.755 143 141.132 144.245 141.132 145.283V148.396C141.132 149.434 141.755 149.849 142.792 149.226C143.623 148.811 144.245 147.566 144.245 146.528V143.415C144.038 142.585 143.415 142.17 142.585 142.585Z" fill="black"/>
<path d="M91.1132 172.264C90.283 172.679 89.6604 173.924 89.6604 174.962V178.075C89.6604 179.113 90.283 179.528 91.1132 178.905C91.9434 178.49 92.5661 177.245 92.5661 176.207V173.094C92.7736 172.056 91.9434 171.849 91.1132 172.264Z" fill="black"/>
<path d="M79.4906 115.604L82.1887 113.944C83.0189 113.529 83.6415 112.284 83.6415 111.246C83.6415 110.208 83.0189 109.793 82.1887 110.416L79.4906 112.076C78.6604 112.491 78.0377 113.736 78.0377 114.774C78.0377 115.812 78.6604 116.227 79.4906 115.604Z" fill="black"/>
<path d="M159.189 62.887L167.075 58.321V68.9059C167.075 71.1889 170.189 69.5285 170.189 67.0379V54.7927C170.189 53.7549 169.566 53.3398 168.528 53.9625L159.189 59.3587C157.113 60.3964 157.113 63.9247 159.189 62.887Z" fill="#00FF00"/>
<path d="M167.076 117.887V128.472L159.396 132.831C157.321 134.076 157.321 137.604 159.396 136.359L168.736 130.963C169.566 130.548 170.189 129.302 170.189 128.265V116.019C170.189 113.736 167.076 115.604 167.076 117.887Z" fill="#00FF00"/>
<path d="M61.2264 131.585C62.0566 131.17 62.6792 129.925 62.6792 128.887V118.302L70.566 113.736C71.3962 113.321 72.0189 112.076 72.0189 111.038C72.0189 110 71.3962 109.585 70.3585 110.208L61.0189 115.604C60.1887 116.019 59.566 117.264 59.566 118.302V130.547C59.566 131.792 60.3962 132.208 61.2264 131.585Z" fill="#00FF00"/>
<path d="M70.7737 184.095L62.8869 188.661V178.076C62.8869 175.793 59.7737 177.453 59.7737 179.944V192.189C59.7737 193.227 60.3963 193.642 61.4341 193.019L70.7737 187.623C72.8492 186.378 72.6416 182.85 70.7737 184.095Z" fill="#00FF00"/>
<path d="M136.981 131.378L96.5095 108.34L96.7171 154.623L136.981 131.378ZM119.547 133.245L103.981 142.17V124.321L119.547 133.245Z" fill="#00FF00"/>
</svg>
