<svg width="254" height="254" viewBox="0 0 254 254" fill="none" xmlns="http://www.w3.org/2000/svg">
<path d="M65.4435 235.147C65.4435 235.097 65.4426 235.042 65.4426 234.995C65.4426 235.048 65.4426 235.098 65.4435 235.147Z" fill="black"/>
<path d="M50.389 226.546L50.016 96.9487V96.9478C50.0059 94.2676 50.7249 91.1954 52.0844 88.1128L63.517 94.7603C62.1232 97.8237 61.1075 101.322 60.9154 104.838V104.839C60.8166 106.711 61.18 235.194 61.181 235.595V235.597C61.186 236.351 61.2337 237.079 61.3217 237.777L53.0599 232.96L53.056 232.958L52.9027 232.866C51.3391 231.873 50.389 229.709 50.389 226.547V226.546Z" fill="#00FF00" stroke="black"/>
<path d="M78.9004 83.8978C78.9399 83.8748 79.0005 83.8397 79.0895 83.7881C79.0142 83.8319 78.9472 83.8707 78.9004 83.8978Z" fill="black"/>
<path d="M65.4399 234.011C65.4409 234.056 65.4409 234.103 65.4409 234.151C65.4409 234.131 65.4409 234.117 65.4409 234.097C65.4409 234.069 65.4399 234.04 65.4399 234.011Z" fill="black"/>
<path d="M171.664 12.8965C174.556 11.2233 177.023 10.9905 178.685 11.958L187.031 16.8115C186.888 16.8745 186.737 16.9399 186.587 17.0078C185.938 17.2997 185.202 17.6429 184.857 17.8418C175.254 23.3835 87.3058 74.1337 75.2311 81.1016C71.9886 82.969 68.5292 86.274 65.7828 90.5889L54.3356 83.9326C56.5209 80.5368 59.2581 77.773 62.0338 76.1689L62.0328 76.168L171.663 12.8965H171.664Z" fill="#00FF00" stroke="black"/>
<path d="M148.624 172.302C148.607 178 148.487 220.268 148.46 229.797L97.4684 200.358L97.6305 142.863C101.513 145.105 119.507 155.492 148.624 172.302Z" fill="#E9EDF4" stroke="black"/>
<path d="M188.702 46.1546C188.687 39.5512 184.549 37.1109 178.728 40.4653L85.9483 94.0073C79.5477 97.7014 74.1639 107.035 74.1859 114.392C74.2005 121.033 78.37 123.392 84.1598 120.058L176.936 66.5176C183.442 62.7614 188.724 53.6268 188.702 46.1546ZM83.7749 112.737C81.9224 113.806 80.4219 112.952 80.4164 110.824C80.41 108.696 81.9004 106.115 83.7529 105.046C85.6055 103.977 87.1224 104.822 87.1288 106.95C87.1352 109.078 85.6274 111.668 83.7749 112.737ZM96.6968 105.393C94.8434 106.462 93.3438 105.608 93.3374 103.48C93.331 101.352 94.8214 98.7712 96.6749 97.7018C98.5274 96.6329 100.044 97.4778 100.051 99.6056C100.057 101.733 98.5484 104.324 96.6968 105.393ZM109.618 97.9359C107.765 99.0048 106.265 98.1503 106.259 96.0226C106.253 93.8948 107.743 91.314 109.596 90.2449C111.448 89.176 112.966 90.0209 112.972 92.1486C112.978 94.2761 111.47 96.867 109.618 97.9359ZM129.571 84.7642C128.517 85.3722 127.66 84.8837 127.657 83.6735C127.653 82.4634 128.505 80.9882 129.558 80.3802L181.125 50.6208C182.179 50.0125 183.036 50.5012 183.04 51.7114C183.044 52.9216 182.192 54.3965 181.138 55.0048L129.571 84.7642Z" fill="black"/>
<path d="M79.1045 84.355C79.1053 84.3545 79.1063 84.3537 79.1074 84.353L78.8535 83.9243L79.1045 84.355ZM79.1045 84.355L79.1055 84.356C79.1005 84.3588 79.0963 84.3617 79.0928 84.3638C79.0916 84.3644 79.0894 84.3639 79.0879 84.3647C78.7541 84.5574 78.2786 84.8334 77.5996 85.2251L77.5986 85.2261C74.3519 87.092 71.3364 90.4203 69.1338 94.2407C66.9311 98.0613 65.5736 102.318 65.5859 106.005V106.006C65.8436 199.072 65.9202 226.527 65.9395 233.5V233.923C65.9397 233.976 65.94 234.033 65.9404 234.093V234.349L65.9414 234.391V234.666C65.9415 234.678 65.9422 234.686 65.9424 234.691V234.806C65.9424 234.887 65.9431 234.961 65.9434 235.029C65.9436 235.096 65.9434 235.157 65.9434 235.213C65.9434 235.262 65.944 235.311 65.9443 235.361V235.583C65.9591 238.904 66.9971 241.068 68.6162 242.023C70.2308 242.975 72.6374 242.85 75.6816 241.1L117.141 217.196L93.9053 203.781L93.7705 203.697C93.1147 203.257 92.7154 202.516 92.7197 201.717L92.8984 138.753V138.751C92.902 138.141 93.1187 137.72 93.3779 137.407C93.4999 137.259 93.6294 137.138 93.7275 137.046C93.8365 136.945 93.8961 136.888 93.9355 136.836L93.999 136.754L94.0703 136.713C94.0731 136.712 94.0762 136.71 94.0791 136.708L94.0908 136.703L149.444 104.536C150.13 104.131 150.976 104.108 151.685 104.456L151.824 104.53L197.213 130.737L196.925 27.4731V27.4722C196.925 23.9918 195.821 21.8739 194.18 20.9751C192.53 20.0716 190.119 20.278 187.23 21.9536L187.229 21.9546C101.799 71.2597 83.1465 82.0241 79.7598 83.979L79.7539 83.9819M79.1045 84.355C79.1056 84.3543 79.1073 84.3546 79.1084 84.354H79.1094C79.1115 84.3528 79.1141 84.3514 79.1182 84.3491C79.1262 84.3446 79.1381 84.3373 79.1514 84.3296L79.1504 84.3286C79.2196 84.2888 79.2824 84.2528 79.3389 84.2202L79.3398 84.2212C79.3623 84.2082 79.4016 84.1851 79.4355 84.1655C79.4454 84.1598 79.4555 84.1544 79.4648 84.1489L79.4639 84.1479C79.4958 84.1296 79.5306 84.1105 79.5674 84.0894C79.5914 84.0754 79.6333 84.052 79.6592 84.0366L79.6582 84.0356C79.6864 84.0194 79.7164 84.0035 79.7471 83.9858M79.7471 83.9858L79.7461 83.9849C79.7497 83.9828 79.7526 83.9826 79.7539 83.9819M79.7471 83.9858C79.748 83.9854 79.7488 83.985 79.749 83.9849C79.7504 83.9841 79.7514 83.9832 79.752 83.9829L79.7539 83.9819M79.7471 83.9858L79.7432 83.979L79.585 83.6851L79.7539 83.9819M93.9482 136.824C93.9504 136.821 93.9528 136.819 93.9551 136.816C93.9528 136.819 93.9504 136.821 93.9482 136.824ZM188.042 35.9028C184.997 34.1308 180.907 34.3109 176.605 36.7876L83.8262 90.3296C79.8977 92.5972 76.4236 96.3724 73.9365 100.684C71.5272 104.861 70.0215 109.579 69.9434 113.98L69.9404 114.405C69.9522 119.245 71.8038 122.876 74.8477 124.64C77.8932 126.405 81.9825 126.215 86.2822 123.735L179.059 70.1948C182.987 67.9273 186.461 64.1556 188.948 59.8481C191.358 55.6752 192.865 50.9614 192.944 46.5659L192.947 46.1421C192.936 41.3082 191.085 37.6737 188.042 35.9028ZM79.291 84.1401C79.2721 84.1772 79.2497 84.2198 79.2373 84.2368C79.226 84.2509 79.2059 84.2737 79.1973 84.2827C79.1799 84.3004 79.1646 84.3126 79.1582 84.3179C79.155 84.3205 79.1513 84.3225 79.1484 84.3247L78.9004 83.897C78.9699 83.857 79.0321 83.8208 79.0879 83.7886L79.291 84.1401ZM79.3164 83.6567L79.5391 84.0405C79.5314 84.0411 79.5241 84.0432 79.5176 84.0435C79.4905 84.042 79.4405 84.0299 79.3848 84.0122L79.3184 83.8999C79.3138 83.828 79.3041 83.753 79.2832 83.6968C79.2797 83.6919 79.2744 83.6881 79.2705 83.6831L79.3164 83.6567ZM79.7129 84.0005C79.7115 84.0011 79.7105 84.0028 79.709 84.0034C79.7043 84.0054 79.6954 84.0093 79.6846 84.0132C79.6798 84.0149 79.6672 84.0172 79.6504 84.022L79.4033 83.6069L79.4023 83.606C79.4253 83.5927 79.4491 83.5791 79.4736 83.5649L79.7129 84.0005ZM79.7354 83.9927C79.7325 83.9942 79.7276 83.9965 79.7217 83.9995C79.7301 83.9949 79.7371 83.9914 79.7383 83.9907C79.739 83.9903 79.7376 83.9914 79.7354 83.9927ZM79.7266 83.9946C79.7248 83.9955 79.7229 83.9966 79.7207 83.9976L79.6592 83.8755L79.7266 83.9946Z" fill="white" stroke="black"/>
<path d="M201.631 138.768L150.996 168.193C146.383 165.53 111.259 145.25 100.006 138.753L150.643 109.326C159.223 114.28 182.826 127.91 201.631 138.768Z" fill="#00FF00" stroke="black"/>
<path d="M65.4408 234.392C65.4417 234.476 65.4417 234.561 65.4417 234.646C65.4417 234.584 65.4417 234.516 65.4417 234.447C65.4417 234.428 65.4417 234.41 65.4408 234.392Z" fill="black"/>
<path d="M203.819 200.358L153.207 229.771C153.207 229.768 153.208 229.764 153.208 229.76L153.207 229.759C153.207 229.735 153.208 229.714 153.208 229.693C153.208 229.655 153.208 229.603 153.209 229.545V229.518C153.212 227.946 153.239 218.523 153.369 172.301L203.981 142.889L203.819 200.358Z" fill="#E9EDF4" stroke="black"/>
</svg>
