<svg width="807" height="807" viewBox="0 0 807 807" fill="none" xmlns="http://www.w3.org/2000/svg">
<g clip-path="url(#clip0_415_929)">
<path d="M57.1421 403.502C57.1421 540.518 136.455 658.927 251.465 715.04L86.9935 262.625C67.8624 305.676 57.1421 353.317 57.1421 403.502ZM634.697 386.034C634.697 343.253 619.391 313.626 606.263 290.566C588.785 262.052 572.403 237.905 572.403 209.391C572.403 177.571 596.441 147.951 630.301 147.951C631.83 147.951 633.28 148.142 634.769 148.227C573.426 91.8055 491.699 57.357 401.935 57.357C281.48 57.357 175.504 119.404 113.853 213.383C121.942 213.627 129.566 213.798 136.042 213.798C172.106 213.798 227.931 209.405 227.931 209.405C246.518 208.305 248.709 235.712 230.142 237.918C230.142 237.918 211.464 240.125 190.679 241.218L316.239 616.167L391.694 388.971L337.974 241.205C319.408 240.112 301.818 237.905 301.818 237.905C283.238 236.812 285.416 208.291 303.996 209.391C303.996 209.391 360.937 213.785 394.817 213.785C430.874 213.785 486.706 209.391 486.706 209.391C505.306 208.291 507.491 235.699 488.917 237.905C488.917 237.905 470.199 240.112 449.454 241.205L574.056 613.314L608.447 497.935C623.353 450.056 634.697 415.667 634.697 386.034ZM407.984 433.781L304.534 735.577C335.422 744.693 368.088 749.679 401.935 749.679C442.087 749.679 480.592 742.71 516.433 730.057C515.508 728.575 514.668 727.001 513.979 725.288L407.984 433.781ZM704.477 237.424C705.959 248.451 706.799 260.287 706.799 273.019C706.799 308.146 700.265 347.633 680.583 397.007L575.263 702.716C677.768 642.704 746.715 531.211 746.715 403.508C746.721 343.325 731.409 286.732 704.477 237.424ZM401.935 0C180.32 0 0.0112305 181.009 0.0112305 403.502C0.0112305 626.02 180.32 807.023 401.935 807.023C623.544 807.023 803.878 626.02 803.878 403.502C803.872 181.009 623.544 0 401.935 0ZM401.935 788.527C190.482 788.527 18.4403 615.804 18.4403 403.502C18.4403 191.212 190.476 18.5021 401.935 18.5021C613.381 18.5021 785.41 191.212 785.41 403.502C785.41 615.804 613.381 788.527 401.935 788.527Z" fill="#464342"/>
</g>
<defs>
<clipPath id="clip0_415_929">
<rect width="807" height="807" fill="white"/>
</clipPath>
</defs>
</svg>
